<?xml version="1.0" standalone="no"?>
<!DOCTYPE svg PUBLIC "-//W3C//DTD SVG 1.1//EN" "http://www.w3.org/Graphics/SVG/1.1/DTD/svg11.dtd" >
<!--
2013-9-30: Created.
-->
<svg>
<metadata>
Created by iconfont
</metadata>
<defs>

<font id="iconfont" horiz-adv-x="1024" >
  <font-face
    font-family="iconfont"
    font-weight="500"
    font-stretch="normal"
    units-per-em="1024"
    ascent="896"
    descent="-128"
  />
    <missing-glyph />
    
    <glyph glyph-name="qian1" unicode="&#58954;" d="M228.677632 759.077888 250.308608 772.740096 504.19712 405.001216 520.136704 405.001216 774.024192 772.740096 795.656192 758.508544 551.44448 405.001216 823.703552 405.001216 823.703552 378.815488 533.228544 378.815488 526.190592 367.427584 526.190592 238.780416 823.703552 238.780416 823.703552 213.732352 526.190592 213.732352 526.190592-5.434368 499.073024-5.434368 499.073024 212.589568 200.948736 212.589568 200.948736 239.915008 499.073024 239.915008 499.073024 366.288896 490.677248 379.385856 200.948736 379.385856 200.948736 405.00224 472.887296 405.00224Z"  horiz-adv-x="1024" />

    
    <glyph glyph-name="biaoqian1" unicode="&#58960;" d="M6.63333336 630.29999997l284.4 280.5h385.1L6.63333336 241.29999997000004v389z m0 0"  horiz-adv-x="1024" />

    
    <glyph glyph-name="biaoqian11" unicode="&#58961;" d="M5.33333336 911.99999997v-673l673 673z"  horiz-adv-x="1024" />

    
    <glyph glyph-name="message" unicode="&#59074;" d="M512-16.186081729999955c29.01606849 0 52.87699792 23.56635005 52.87699792 52.87699791H458.97571239c0.1472897-29.31064787 24.00821911-52.87699792 53.02428761-52.87699791zM875.36365979 109.01015289999998l-92.79250331 120.33567492V460.29605827c0 75.85418921-31.22541381 149.20445373-85.72259829 201.49229291-37.70616007 36.2332632-83.66054267 60.09419262-133.14987777 70.10989138v0.73644845c0 28.57419943-23.12448098 51.69868042-51.69868042 51.6986804s-51.69868042-23.12448098-51.69868042-51.6986804c-53.31886698-10.01569877-102.5136227-35.64410444-141.39810027-74.52858203-48.3110176-48.01643822-76.59063766-111.94016272-79.83101079-179.84070879-0.1472897-4.27140094-0.29457937-8.69009158-0.29457938-12.96149253v-236.25265921l-90.28857861-120.33567494c-6.92261532-9.27925033-8.10093283-21.35700474-2.94579375-31.66728288s15.46541722-16.64373472 26.95401285-16.6437347h678.71088136c11.63588534 0 21.94616349 6.48074626 27.10130255 16.79102441 5.30242877 10.31027814 4.12411126 22.53532223-2.94579375 31.81457256z m-645.27612222 10.16298844l61.56708949 82.04035612c3.82953187 5.15513907 6.03887719 11.63588534 6.03887721 18.1166316v245.9737786c0 3.38766283 0.1472897 6.77532564 0.29457938 10.16298846 2.50392469 53.1715773 24.74466755 103.10278146 62.59811731 140.80894152 37.85344976 37.70616007 87.93194362 59.65232355 141.25081057 61.86166887 57.59026793 2.35663501 112.3820318-18.55850066 154.35959283-58.76858541 43.00858883-41.24111259 67.6059667-99.12595989 67.6059667-158.92557313v-240.81863954c0-6.62803595 2.20934532-13.2560719 6.33345657-18.41121097l63.03998636-81.74577673H230.08753757z"  horiz-adv-x="1024" />

    
    <glyph glyph-name="address" unicode="&#59123;" d="M512-14.904888890000052s308.79288889 252.58666667 308.79288889 487.53777778c0 171.34933333-138.24 310.272-308.79288889 310.272S203.20711111 643.98222222 203.20711111 472.63288889c0-243.712 308.79288889-487.53777778 308.79288889-487.53777778zM383.31733333 467.62666667c0 74.63822222 60.52977778 135.168 135.168 135.168s135.05422222-60.52977778 135.05422222-135.168-60.52977778-135.05422222-135.05422222-135.05422222c-74.63822222 0-135.168 60.416-135.168 135.05422222z"  horiz-adv-x="1024" />

    
    <glyph glyph-name="Collection" unicode="&#59125;" d="M832.8 490.6l-156.4 22.3c-22.1 3.2-48.4 21.8-58.4 41.6l-70 139.2c-19.8 39.4-52.2 39.6-72.1 0l-70-139.2c-9.9-19.7-36.1-38.5-58.4-41.6l-156.4-22.3c-44.3-6.3-54.5-36.5-22.3-67.3L282 315c16-15.3 26.1-45.6 22.3-67.4l-26.7-152.9c-7.6-43.4 18.5-62.1 58.3-41.6l139.9 72.2c19.8 10.2 52.2 10.3 72.1 0L688 53.1c39.6-20.5 65.9-1.9 58.3 41.6l-26.7 152.9c-3.8 21.6 6.2 51.9 22.3 67.4l113.2 108.3c32 30.7 22.2 60.9-22.3 67.3zM832.8 490.6l-156.4 22.3c-22.1 3.2-48.4 21.8-58.4 41.6l-70 139.2c-19.8 39.4-52.2 39.6-72.1 0l-70-139.2c-9.9-19.7-36.1-38.5-58.4-41.6l-156.4-22.3c-44.3-6.3-54.5-36.5-22.3-67.3L282 315c16-15.3 26.1-45.6 22.3-67.4l-26.7-152.9c-7.6-43.4 18.5-62.1 58.3-41.6l139.9 72.2c19.8 10.2 52.2 10.3 72.1 0L688 53.1c39.6-20.5 65.9-1.9 58.3 41.6l-26.7 152.9c-3.8 21.6 6.2 51.9 22.3 67.4l113.2 108.3c32 30.7 22.2 60.9-22.3 67.3z"  horiz-adv-x="1024" />

    
    <glyph glyph-name="coupon" unicode="&#59126;" d="M833.3 449.9c21.7 13.8 23.7 25.6 23.7 45.3V607.4c0 35.4-29.6 65-65 65H232.1c-35.5 0-65-29.5-65-65v-112.2c0-17.7 2-33.5 23.7-45.3C206.6 442 242 422.3 242 383c0-43.3-25.6-57.1-49.3-65h-2C169 304.2 167 282.6 167 272.7v-112.2c0-35.4 29.6-65 65-65h559.8c35.5 0 65 29.5 65 65V272.8c0 21.7-7.9 29.5-23.7 43.3-39.2 19.7-51.1 35.4-51.1 66.9 0 29.5 11.9 45.3 51.3 66.9z m-216.7-91.8c11.7 0 21.5-10 21.5-21.9 0-12-9.8-21.9-21.5-21.9h-82.1v-83.7c0-12-9.8-21.9-21.5-21.9s-21.5 10-21.5 21.9v83.7h-82.1c-11.7 0-21.5 10-21.5 21.9 0 12 9.8 21.9 21.5 21.9h82.1v51.8h-88c-11.7 0-21.5 10-21.5 21.9s9.8 21.9 21.5 21.9H468l-68.5 69.7c-7.8 8-7.8 21.9 0 29.9s21.5 8 29.3 0l84.1-85.7 84.1 85.7c7.8 8 21.5 8 29.3 0 7.8-8 7.8-21.9 0-29.9L558 453.7h62.6c11.7 0 21.5-10 21.5-21.9s-9.8-21.9-21.5-21.9h-88v-51.8h84z"  horiz-adv-x="1024" />

    
    <glyph glyph-name="distribution" unicode="&#59128;" d="M427.5 615.1c4.2-6.6 11.3-10.6 19-10.6h125.3c7.1 0 13.9 3.4 18.2 9.3l53.1 72.6c4.2 5.6 5.6 12.9 3.9 19.8-1.6 6.9-6.2 12.7-12.5 15.7-41.2 19.7-83.9 29.7-126.8 29.7-71 0-118-27.5-120-28.7-5.4-3.2-9.3-8.6-10.8-14.9-1.4-6.3-0.3-12.9 3.1-18.3l47.5-74.6zM180.2 190.9c0.9-7.2 24.1-172.5 320.1-174.1 0.2 0 0.4-0.1 0.6-0.1 6.4-0.1 12.6-0.2 18.8-0.2 300.2 0 323.5 167 323.8 171.4C900.7 416.3 619.9 562 607.9 568.1l-4.7 2.4h-86.9c-0.3 0-0.6 0.2-0.9 0.2h-94.3l-4.7-2.4c-11.9-6.2-292.7-151.9-236.2-377.4z m218.5 249.8c9 9 23.5 9 32.4 0l81-81.8 81 81.8c9 9 23.5 9 32.4 0 9-9 9-23.7 0-32.7l-73.1-73.8h40.9c12.7 0 22.9-10.3 22.9-23.1 0-12.7-10.3-23.1-22.9-23.1h-57.5v-36.8h57.1c13.7 0 24.8-11.2 24.8-25s-11.1-25-24.8-25h-57.1V151c0-12.8-10.3-23.1-22.9-23.1s-22.9 10.2-22.9 23v50.2h-57.6c-13.7 0-24.8 11.2-24.8 25s11.1 25 24.8 25H490v36.8h-57.2c-12.7 0-22.9 10.4-22.9 23.1 0 12.8 10.3 23.1 22.9 23.1h38.9l-73.1 73.8c-8.9 9.1-8.9 23.7 0.1 32.8z"  horiz-adv-x="1024" />

    
    <glyph glyph-name="fenxiang" unicode="&#58887;" d="M820.83598328 322.35639953c-12.05062867 0-20.0843811-8.03375244-20.08438111-20.0843811v-150.40111542c0-26.10969544-22.09281922-48.12526703-48.12526703-48.12526702H269.28797912c-26.03244782 0-48.12526703 22.09281922-48.12526702 48.12526703V573.02492524c0 26.10969544 22.09281922 48.12526703 48.12526702 48.12526702h154.41799165c12.05062867 0 20.0843811 8.03375244 20.0843811 20.0843811s-8.03375244 20.0843811-20.08438111 20.08438111H269.28797912c-48.12526703 0-88.21678162-40.09151459-88.21678161-88.21678161v-421.15402223c0-48.12526703 40.09151459-88.21678162 88.21678161-88.21678161h485.34679414c48.12526703 0 88.21678162 40.09151459 88.21678162 88.21678161V302.27201843c-1.9311905 12.05062867-9.96494294 20.0843811-22.0155716 20.0843811z m0 0M706.50950622 701.41046906c-8.03375244 8.03375244-20.0843811 8.03375244-28.11813354-1e-8-8.03375244-8.03375244-8.03375244-20.0843811 0-28.11813354l98.25897217-98.25897217H670.43486787c-196.51794434-24.10125732-246.65164948-150.40111542-258.70227815-330.92880249 0-12.05062867 8.03375244-20.0843811 18.07594299-22.09281921h2.00843812c10.04219055 0 20.0843811 8.03375244 20.0843811 18.075943 12.05062867 170.48549652 54.15058136 272.76134491 222.62763977 294.85416411h110.30960083L686.50237274 436.68287659c-8.03375244-8.03375244-8.03375244-20.0843811-1e-8-28.11813355 4.01687622-4.01687622 10.04219055-6.02531433 14.05906678-6.02531433 4.01687622 0 10.04219055 2.00843811 14.05906677 6.02531433l114.32647706 114.32647706c8.03375244 8.03375244 12.05062867 18.07594299 12.05062866 28.04088592 0 10.04219055-4.01687622 20.0843811-12.05062867 28.04088593L706.50950622 701.41046906z m1e-8-1e-8"  horiz-adv-x="1024" />

    
    <glyph glyph-name="kefu1" unicode="&#58888;" d="M283.57226562 34.8984375c-8.70117188 0-16.78710938 4.921875-20.74218749 12.65625s-3.33984375 17.13867188 1.7578125 24.2578125c5.71289063 8.0859375 52.99804688 79.98046875-27.50976563 140.53710938C161.84375 268.24804687000005 117.1953125 351.3046875 117.1953125 434.9765625c0 159.9609375 184.13085938 300.234375 394.1015625 300.234375 208.30078125 0 392.43164063-140.18554688 394.1015625-299.97070313 1.58203125-159.9609375-121.46484375-270.703125-329.32617188-296.36718749l-105.55664062-3.69140626C442.56640625 113.73632812000005 340.61328125 38.85351562000005 285.15429687 34.98632812000005c-0.52734375 0-1.0546875-0.08789063-1.58203124-0.08789062z m227.63671876 653.64257813c-198.80859375 0-347.43164063-133.85742188-347.43164063-253.56445313 0-68.99414063 37.6171875-138.07617188 100.546875-184.74609375 65.12695313-48.95507813 72.59765625-107.9296875 61.69921875-153.19335937 39.81445313 19.95117188 90.3515625 54.93164063 121.72851563 79.453125 3.8671875 2.98828125 8.61328125 4.74609375 13.53515624 4.921875l111.00585938 3.77929687C754.9296875 207.8671875 860.046875 298.83398437000005 858.640625 434.71289063c-1.14257813 120.05859375-144.140625 253.828125-347.43164063 253.82812499z m-1e-8 0M355.02734375 403.07226563h-9.75585938c-9.31640625 0-18.19335938 3.69140625-24.69726562 10.28320312-6.59179688 6.59179688-10.28320313 15.46875-10.28320313 24.69726563 0 9.31640625 3.69140625 18.19335938 10.28320313 24.69726562 6.59179688 6.59179688 15.46875 10.28320313 24.69726563 10.1953125h9.75585937c19.3359375 0 34.98046875-15.64453125 34.98046875-34.98046875 0-19.24804688-15.64453125-34.89257813-34.98046875-34.89257813z m172.44140625-1e-8h-9.75585938c-9.31640625 0-18.19335938 3.69140625-24.69726562 10.28320313-6.59179688 6.59179688-10.28320313 15.46875-10.28320313 24.69726563 0 9.31640625 3.69140625 18.19335938 10.28320313 24.69726562 6.59179688 6.59179688 15.46875 10.28320313 24.69726563 10.1953125h9.75585937c19.16015625-0.26367188 34.54101563-15.8203125 34.54101563-34.98046875 0-19.07226563-15.38085938-34.62890625-34.54101563-34.89257813z m172.52929688 0h-9.75585938c-19.3359375 0-34.98046875 15.64453125-34.98046875 34.98046875 0 19.3359375 15.64453125 34.98046875 34.98046875 34.98046875h9.75585938c19.3359375 0 34.98046875-15.64453125 34.98046874-34.98046875 0-19.3359375-15.73242188-34.98046875-34.98046875-34.98046875z m-1e-8 0"  horiz-adv-x="1024" />

    
    <glyph glyph-name="gouwuche" unicode="&#58889;" d="M722.14648438 224.65429687000005H397.7421875c-71.3671875 0-88.59375 45.3515625-101.16210938 95.88867188L202.09765625 720.88476563h-29.00390625c-13.88671875 0-25.22460938 11.25-25.22460938 25.22460937 0 13.88671875 11.25 25.22460938 25.22460938 25.22460937h48.95507813c11.68945313 0 21.796875-7.99804688 24.52148437-19.42382812l98.96484375-419.50195313c13.18359375-52.91015625 23.5546875-57.3046875 52.20703125-57.30468749h324.40429688c9.66796875 0 38.84765625 0 52.20703124 57.3046875l47.8125 190.37109374c7.55859375 30.05859375 6.50390625 53.4375-2.8125 65.74218751-7.11914063 9.31640625-20.65429688 14.15039063-40.16601562 14.50195312H386.40429687c-6.6796875 0-13.09570313 2.63671875-17.84179687 7.3828125s-7.3828125 11.16210938-7.3828125 17.84179688c0 6.6796875 2.63671875 13.09570313 7.3828125 17.84179687s11.16210938 7.3828125 17.84179688 7.3828125h393.22265624c36.12304688-0.61523438 62.84179688-12.21679688 79.71679688-34.27734375 19.51171875-25.48828125 23.46679688-61.96289063 11.68945313-108.6328125l-47.72460938-189.93164063c-19.3359375-83.49609375-71.63085938-95.9765625-101.16210938-95.97656249zM349.31445312-1.5761718799999471c-51.94335938 0-94.21875 42.27539063-94.21874999 94.21875001s42.27539063 94.21875 94.21875 94.21875 94.21875-42.27539063 94.21875-94.21875S401.2578125-1.5761718799999471 349.31445312-1.5761718799999471z m1e-8 138.07617188c-24.16992188 0-43.85742188-19.6875-43.85742188-43.85742188s19.6875-43.85742188 43.85742188-43.85742187 43.85742188 19.6875 43.85742187 43.85742188-19.6875 43.85742188-43.85742188 43.85742187z m401.30859374-138.07617188c-51.94335938 0-94.21875 42.27539063-94.21874999 94.21875001s42.27539063 94.21875 94.21875 94.21875 94.21875-42.27539063 94.21875-94.21875-42.27539063-94.21875-94.21875-94.21875z m1e-8 138.07617188c-24.16992188 0-43.85742188-19.6875-43.85742188-43.85742188s19.6875-43.85742188 43.85742188-43.85742187 43.85742188 19.6875 43.85742187 43.85742188-19.6875 43.85742188-43.85742188 43.85742187z m0 0"  horiz-adv-x="1024" />

    
    <glyph glyph-name="fenxiao" unicode="&#58890;" d="M473.6 820.6c-6.1 4.7-15.2 7.7-27.3 9.2-12.1 1.5-23.1-0.2-33-4.8-12.9-6.4-22-11.8-27.3-16.2-5.3-4.4-13.3-7.4-23.9-9.2-6.1-1.2-12.7-0.9-19.9 0.9-7.4 1.8-14.8 3.5-22.2 5.3-7.1 1.7-14.3 2.8-21.6 3.5-6.8 0.6-12.9-0.6-18.2-3.5-10.6-6.4-14-14.2-10.2-23.2 3.8-9.1 10.6-16.2 20.5-21.5 9.6-5.6 18.9-11.6 27.9-18 9.4-6.7 18-14.5 25.6-23.2 3.8-4.7 8.3-9.9 13.7-15.8 5.2-5.7 10.1-11.5 14.8-17.5 5.5-6.6 10.8-13.3 15.9-20.2h235.7c5.3 5.8 10.2 12 14.8 18.4 3.9 5.4 8.1 10.7 12.5 15.8 4.1 4.7 8.3 9.4 12.5 14 7.4 8 15 15.7 22.8 23.2 7.6 7.3 18.6 14.5 33 21.5 5.8 2.7 11.1 6.6 15.4 11.4 4.2 4.7 6.8 9.4 8 14 1.1 4.7 0.4 9.2-2.3 13.6-2.7 4.4-7.8 7.7-15.4 10.1-6.8 1.8-12.7 2.3-17.6 1.8-4.9-0.6-9.9-1.6-14.8-3.1s-10.1-3.1-15.4-4.8c-5.3-1.8-11.8-2.6-19.4-2.6-7.6 0-13.9 1-18.8 3.1-4.8 2-9.4 4.5-13.7 7.5-4.2 2.9-8.5 6-13.1 9.2-4.6 3.2-10.6 5.7-18.2 7.4-15.2 4.7-27.3 5.5-36.4 2.6-9.1-2.9-18.2-7.6-27.3-14-7.6-5.8-13.7-9.9-18.2-12.3-2.3-1.2-4.2-1.8-5.7-1.8-4.4 1.7-8.5 3.7-12.5 6.1M312.8 546.7c-16.6-14.3-33.6-28.2-50.8-41.6-21.8-16.8-41.9-35.7-60-56.5-18.3-21-33.8-44.3-46-69.4-12.3-25.2-20.7-52.2-25.4-80.9-4.7-28.7-3.8-58.7 2.7-90 5.8-28.1 17.7-56.3 35.7-84.7 18-28.4 42.4-54.1 73-77 30.6-23 67.9-41.6 111.9-56 44-14.3 94.5-21.5 151.4-21.5 55.5 0 105.1 6.2 148.7 18.7 43.6 12.4 81.3 29.2 113 50.2 31.7 21 61.8 44.7 80.9 73 19.1 28.4 33.5 62.6 40 94.5 7.2 38.9 5.4 69.9 0 101.5-5.4 31.6-18.6 60.8-32.3 85-13.7 24.2-29.7 45.5-48.1 63.6-18.4 18.2-36.2 34-53.5 47.4-20.9 15.3-35.5 24.3-51.4 38-15.9 13.7-27.7 18.8-38.6 29.6-13 12.1-29.9 20.8-38.5 31H382.2M633.5 208c15.9 0 28.8-12.3 28.8-27.6 0-15.2-12.9-27.6-28.8-27.6H539v-23.6c0-15.2-12.9-27.6-28.8-27.6s-28.8 12.3-28.8 27.6v23.6h-94.5c-15.9 0-28.8 12.3-28.8 27.6 0 15.2 12.9 27.6 28.8 27.6h94.5v63h-94.5c-15.9 0-28.8 12.3-28.8 27.6 0 15.2 12.9 27.6 28.8 27.6h82.6l-0.2 0.2-82.2 78.6c-11.2 10.8-11.2 28.2 0 39s29.5 10.8 40.7 0l82.2-78.7 0.2-0.2 0.2 0.2 82.2 78.7c11.2 10.8 29.5 10.8 40.7 0 5.4-5.1 8.4-12.1 8.4-19.5s-3-14.4-8.4-19.5l-82.2-78.7-0.2-0.2h82.6c15.9 0 28.8-12.3 28.8-27.6 0-15.2-12.9-27.6-28.8-27.6H539v-63h94.5z m0 0"  horiz-adv-x="1024" />

    
    <glyph glyph-name="fenxiao1" unicode="&#58891;" d="M352.4375 668.34375001c10.6875-1.59375001 21.375 2.90625001 27.84375001 11.625 33.5625 40.78125001 83.625 64.50000001 136.40624999 64.68749998 52.875 0.1875 103.03125002-23.15625001 136.875-63.75 6.5625-8.53125001 17.15625001-12.75 27.75-11.0625 10.59375001 1.6875 19.40625001 9.09375001 22.875 19.21875001 3.5625 10.125 1.21875001 21.375-6 29.25-44.71875001 53.625-111 84.5625-180.84375001 84.5625-70.50000001 0.09375001-137.25-31.40625001-181.96874999-85.78125001-7.40625001-7.96875001-9.75-19.3125-6.09375001-29.53124999 3.46875001-10.21875001 12.375-17.625 23.15625001-19.21874999zM901.34375001 51.375l-10.31250002 212.0625c0.1875-0.09375001 0.28125001-0.1875 0.46875-0.28125001l-13.96875 303.75000002c-1.125 32.71875001-27.84375001 58.78125001-60.65624999 59.15624999H701.9375c-14.15625001 0-27.5625-6.5625-36.28125001-17.8125-33.5625-43.59375001-63.375-89.8125-89.24999998-138.375-25.50000001-48.09375001-53.625-98.0625-76.6875-138.46875001-2.0625-2.71875001-1.96875001-6.5625 0.09374999-9.18749998 2.15625001-2.71875001 5.8125-3.65625001 8.90625001-2.25l74.90624999 25.96874999c14.4375 5.34375001 30.65625001-0.46875001 38.4375-13.78124999 4.3125-7.875 4.96875001-17.25 1.6875-25.6875-3.1875-8.34375001-10.03125002-14.90625001-18.46874999-17.90625001-64.78125001-22.96875001-163.21875001-56.625-171.46875001-59.625l-2.25-0.1875-2.06250001-0.65625001c-2.0625-0.46875001-4.125-0.65625001-6.18749999-0.65624999-1.96875001 0-3.84375001 0.1875-5.71874999 0.5625h-1.6875l-3.65625001 1.125-2.0625 0.9375-3 1.6875-1.96874999 1.21875001c-1.03124999 0.75-2.0625 1.59375001-3 2.53125l-1.125 1.03125c-6.1875 4.96875001-9.46875001 12.65625001-9 20.53124999l-40.03125001 180.1875c-3.5625 14.90625001 3.9375 30.28125001 17.90625001 36.5625 8.34375001 3.375 17.8125 2.90625001 25.78124999-1.21875001 7.96875001-4.21875001 13.6875-11.625 15.65625001-20.43749998l20.25-91.03125001c0.65625001-3.09375001 3.09375001-5.53125001 6.1875-6s6.1875 0.9375 7.78124999 3.75c22.96875001 40.50000001 51.5625 90.9375 77.25 139.3125 19.03125002 35.90625001 40.125 70.6875 63.1875 104.15625001 3.1875 4.6875 3.5625 10.78125001 0.84375001 15.74999998-2.625 4.96875001-7.875 8.15625001-13.5 8.15625001H206.28124999c-32.8125-0.375-59.4375-26.4375-60.65624999-59.15625001L121.625 51.375c-1.21875001-21 6.1875-41.53125001 20.53125001-56.90625001 14.34375001-15.375 34.3125-24.1875 55.31249998-24.46874999h628.21875001c21 0.28125001 40.96875001 9.09375001 55.3125 24.46874999 14.15625001 15.375 21.5625 35.90625001 20.34375001 56.90625001z"  horiz-adv-x="1024" />

    
    <glyph glyph-name="selected" unicode="&#59025;" d="M712.7 491.1l-249-249c-0.2-0.2-0.3-0.3-0.5-0.4-4.7-4.5-10.9-6.8-17-6.8-2.3 0-4.7 0.3-7 1h-0.1c-1.1 0.3-2.1 0.7-3.1 1.2-2.6 1.2-5.1 2.9-7.3 5L311 359.9c-9.6 9.6-9.6 25.3 0 34.9 9.6 9.6 25.3 9.6 34.9 0l100.4-100.4L677.8 526c9.6 9.6 25.3 9.6 34.9 0 9.6-9.7 9.6-25.3 0-34.9z m57.8 151.4c-69 69-160.8 107.1-258.5 107.1-97.7 0-189.5-38-258.5-107.1-69-69-107.1-160.9-107.1-258.5s38-189.4 107.1-258.5c69-69 160.8-107.1 258.5-107.1 97.6 0 189.4 38 258.5 107.1 69 69.1 107.1 160.9 107.1 258.5s-38.1 189.5-107.1 258.5z"  horiz-adv-x="1024" />

    
    <glyph glyph-name="unselected" unicode="&#59028;" d="M512 6.439822219999996c-208.13748148 0-377.56017778 169.30133333-377.56017778 377.56017778S303.86251852 761.56017778 512 761.56017778 889.56017778 592.13748148 889.56017778 384 720.13748148 6.439822219999996 512 6.439822219999996z m0 689.4629926c-171.97131852 0-311.90281482-139.9314963-311.90281482-311.90281482s139.9314963-311.90281482 311.90281482-311.90281482 311.90281482 139.9314963 311.90281482 311.90281482-139.9314963 311.90281482-311.90281482 311.90281482z"  horiz-adv-x="1024" />

    
    <glyph glyph-name="dianhua" unicode="&#59029;" d="M689.5 42.60000000000002l-3.5 0.1c-82 4.2-192.7 81.3-296.1 206.4l-38.2 46.2C248.2 420.3 194 542.5 206.7 622c8.9 56.1 92.4 103.4 140 103.4 23.5 0 32-11.7 35-18.7 27-47.9 60.4-131.3 60.5-161.2v-2.1l-0.8-2c-6-15.7-19.3-23.3-31-29.9-15.5-8.7-24.3-14.5-25.3-31-0.3-5 4-27.8 72.3-112l29.2-35.2c68.5-80.8 90-89.5 95-90.2 16.5-2.3 24.3 4.9 36.2 18 9 9.9 19.3 21.2 36.2 23.6l2.1 0.3 2.1-0.4c29.8-6.3 106.1-55.5 149.4-92 6.3-4.2 17.2-16.5 8.5-43.7-13.6-42.9-72.7-106.3-126.6-106.3z"  horiz-adv-x="1024" />

    
    <glyph glyph-name="dianhua1" unicode="&#59031;" d="M672.5 544.2c58.9-59 84-126 75.8-180.2 0 0-2.8-17.2 8.4-28.5 12.6-12.7 32.6-11.9 44.4-0.1 7.6 7.6 9.2 20 9.2 20 6.8 47-1.7 141.2-93.5 233.2-91.8 91.9-185.9 100.5-232.7 93.7 0 0-12.4-1.6-19.9-9.2-11.8-11.8-12.6-31.9 0.1-44.5 11.2-11.2 28.4-8.4 28.4-8.4 54.1 8.2 120.8-17 179.8-76z m-152.4 24.3s-16.2 2.5-27.6-8.9c-11.7-11.7-12.3-31.9 0.1-44.3 7.3-7.3 17.5-8.8 17.5-8.8 20.1-3.8 50.2-10.1 82.3-42.3 32.1-32.1 38.5-62.4 42.2-82.5 0 0 1.6-10.3 8.8-17.6 12.4-12.4 32.5-11.8 44.2-0.1 11.4 11.4 8.8 27.7 8.8 27.7-6.3 40.6-26 83.1-59.8 116.9-33.5 33.8-75.9 53.5-116.5 59.9z m-78-255.5c53.8-53.5 116.1-104.7 140.6-80 35 35.4 56.5 66.1 134.2 4 77.7-62.1 18.4-103.9-15.6-138.2-39.1-39.6-185.7-2.8-331 141.8s-183 291.2-143.9 330.7c34 34.3 75.2 94 137.8 16.7 62.5-77.4 32-99.2-3-134.6-24.4-24.8 27-86.8 80.9-140.4z"  horiz-adv-x="1024" />

    
    <glyph glyph-name="xiangxia1" unicode="&#59033;" d="M503.78843626 234.01327437999998c8.04398081-8.88189547 19.60720323-8.88189547 27.65118405 0.33516587L833.92681556 580.07203239c8.71431257 9.88739309 23.7967766 10.89289068 33.68416969 2.17857814 9.88739309-8.71431257 10.89289068-23.7967766 2.17857811-33.68416968L567.30236812 203.01043163999998c-26.81326939-30.66767685-71.72549562-31.00284274-98.87393088-1.00549761L154.37801954 548.3988579300001c-8.88189547 9.71981015-8.04398081 24.80227418 1.67582936 33.68416966 9.71981015 8.88189547 24.80227418 8.04398081 33.68416967-1.67582934l314.05041769-346.39392387z"  horiz-adv-x="1024" />

    
    <glyph glyph-name="xuanzhong1" unicode="&#59132;" d="M781.1 574.2c-4.1 4.1-11.4 4.6-16 0.9l-338.4-269c-9.2-7.3-24.9-8.1-34.8-1.6l-127 83.1c-5.1 3.3-12.2 2.3-15.9-2.3l-14.2-17.6c-3.7-4.6-3.2-11.7 1.1-15.9l158.5-155.1c8.6-8.4 22.4-8.4 30.9-0.1L788.4 552c4.4 4.3 4.3 10.9 0 15.1l-7.3 7.1z"  horiz-adv-x="1024" />

    
    <glyph glyph-name="icon-test" unicode="&#59133;" d="M508.24583902 69.42719999999997c-82.20318025 0-160.13438419 32.49291061-219.16532939 91.65330963-59.16039902 59.16039902-91.65330963 136.96214914-91.65330963 219.16532939 0 85.43952592 32.49291061 165.57144494 91.65330963 225.63802073 58.77203753 59.80766815 136.57378765 92.68894025 219.2947832 92.68894025 85.82788741 0 165.95980642-32.8812721 225.76747458-92.55948642s92.55948642-139.81013333 92.55948642-225.76747456c0-82.59154173-32.8812721-160.52274569-92.68894025-219.29478321C673.81728395 101.92011061000005 593.68536494 69.42719999999997 508.24583902 69.42719999999997z m0 602.99592691c-75.60103506 0-146.80064-30.16274173-200.52397827-84.79225678-54.24115358-55.14733037-84.01553383-128.80655803-84.01553384-207.2555773 0-75.21267358 29.77438025-146.54173235 84.01553384-200.65343208 54.11169975-54.11169975 125.44075852-84.01553383 200.65343208-84.01553384 78.44901925 0 152.10824691 29.90383408 207.2555773 84.01553384 54.75896889 53.72333827 84.7922568 125.05239703 84.79225678 200.52397827 0 78.83738075-30.16274173 152.36715457-84.92171061 207.12612345-54.75896889 54.88842272-128.41819653 85.05116445-207.25557728 85.05116444zM510.05819259 541.2864c-84.92171061 0-155.34459259-70.42288197-155.34459259-159.22820741 0-84.92171061 70.42288197-155.34459259 155.34459259-155.34459259 88.80532543 0 159.22820741 70.42288197 159.22820741 155.34459259 0 88.80532543-70.42288197 159.22820741-159.22820741 159.22820741z"  horiz-adv-x="1024" />

    
    <glyph glyph-name="icon-test1" unicode="&#59134;" d="M512 673.3293037c39.09505581 0 77.02502717-7.63777581 112.62482963-22.78387357 34.43471803-14.62828247 65.37418272-35.47034864 91.91221728-62.00838322s47.50955457-57.47749925 62.00838322-91.91221728c15.01664395-35.59980247 22.78387358-73.52977383 22.78387357-112.62482963s-7.63777581-77.02502717-22.78387357-112.62482963c-14.62828247-34.43471803-35.47034864-65.37418272-62.00838322-91.91221728s-57.47749925-47.50955457-91.91221728-62.00838322c-35.59980247-15.01664395-73.52977383-22.78387358-112.62482963-22.78387357s-77.02502717 7.63777581-112.62482963 22.78387357c-34.43471803 14.62828247-65.37418272 35.47034864-91.91221728 62.00838322s-47.50955457 57.47749925-62.00838322 91.91221728c-15.01664395 35.59980247-22.78387358 73.52977383-22.78387357 112.62482963s7.63777581 77.02502717 22.78387357 112.62482963c14.62828247 34.43471803 35.47034864 65.37418272 62.00838322 91.91221728s57.47749925 47.50955457 91.91221728 62.00838322c35.59980247 15.14609778 73.52977383 22.78387358 112.62482963 22.78387357m0 25.89076544c-174.11539753 0-315.22006914-141.10467161-315.22006914-315.22006914s141.10467161-315.22006914 315.22006914-315.22006914 315.22006914 141.10467161 315.22006914 315.22006914-141.10467161 315.22006914-315.22006914 315.22006914z"  horiz-adv-x="1024" />

    
    <glyph glyph-name="bianji" unicode="&#59035;" d="M697.09765625 59.15625H279.00195312c-38.40820313 0-69.69726563 31.2890625-69.69726562 69.69726563V593.44335938c0 38.40820313 31.2890625 69.69726563 69.69726563 69.69726562h325.19531249c12.83203125 0 23.203125-10.37109375 23.20312501-23.203125 0-12.83203125-10.37109375-23.203125-23.203125-23.203125h-325.19531251c-12.83203125 0-23.203125-10.45898438-23.20312499-23.203125v-464.58984375c0-12.83203125 10.45898438-23.203125 23.203125-23.203125h418.09570312c12.83203125 0 23.203125 10.37109375 23.203125 23.203125V500.45507813c0 12.83203125 10.37109375 23.203125 23.203125 23.20312499 12.83203125 0 23.203125-10.37109375 23.203125-23.203125v-371.60156249c0.08789063-38.40820313-31.20117188-69.69726563-69.609375-69.69726563zM487.83007812 362.02734375c-5.9765625 0-11.953125 2.28515625-16.52343749 6.85546875-9.05273438 9.140625-8.96484375 23.81835938 0.17578124 32.87109375l303.66210938 300.32226563c9.140625 9.05273438 23.81835938 8.87695313 32.87109375-0.17578126 9.05273438-9.140625 8.96484375-23.81835938-0.17578125-32.87109375L504.17773437 368.79492187000005c-4.5703125-4.48242188-10.45898438-6.76757813-16.34765624-6.76757812z"  horiz-adv-x="1024" />

    
    <glyph glyph-name="fenxiao-tuiguangerweima" unicode="&#58941;" d="M188.14701577 87.62506536000001c0-16.34689544 13.23017202-29.51346066 29.51346066-29.51346067h206.78504372V294.34650292000003H188.14701577v-206.72143756z m89.24005417 118.24466237h59.09052813v-59.0905281h-59.09052813v59.0905281zM483.53604827 176.22905347999995h59.09052748v-118.11744879h-59.09052747V176.22905347999995zM188.14701577 412.52755852H306.32807137v-59.09052811H188.14701577v59.09052812z m295.38903251 1e-8H365.41859949v-59.02692133h118.11744878V235.3831884h59.02692132V530.64500732h-59.02692132v-118.11744879z m118.18105559-118.1810556h118.1174488V176.22905347999995H601.71710387V294.34650292000003zM424.44552015 707.9165910300001H217.66047642C201.37718778 707.9165910300001 188.14701577 694.68641901 188.14701577 678.40313036v-206.78504436h236.29850438V707.9165910300001zM336.47759807 560.28568093h-59.09052813v59.09052812h59.09052813v-59.09052812z m471.96094337 147.6309101h-206.72143757v-236.29850503h236.2985044V678.40313036c-0.0636068 16.28328863-13.23017202 29.51346066-29.57706683 29.51346066z m-58.51806886-147.6309101h-59.09052749v59.09052812h59.09052749v-59.09052812zM483.53604827 707.9165910300001h59.09052748v-118.11744944h-59.09052747V707.9165910300001z m177.20797692-295.38903251h177.27158308v-59.09052811H660.74402519v59.09052811z m0 0M778.86147399 117.20213281999997H601.71710387v-59.09052813h206.78504373c16.34689544 0 29.51346066 13.23017202 29.51346067 29.51346067v206.72143757H778.92508078v-177.14437011z m0 0"  horiz-adv-x="1024" />

    
    <glyph glyph-name="fenxiao-tixianmingxi" unicode="&#58949;" d="M847.24495666 551.33605298M749.28748784 708.7426939100001H275.53996316c-39.65399811 0-72.11553748-32.46153938-72.11553747-72.11553746v-504.74511229c0-39.65399811 32.46153938-72.11553748 72.11553748-72.11553746h473.74752467c39.65399811 0 72.11553748 32.46153938 72.11553748 72.11553746v504.74511229c0 39.65399811-32.46153938 72.11553748-72.11553748 72.11553746zM439.88446252 449.94147998c-12.79366552 0-23.23227818 10.43861267-23.23227818 23.2322782s10.43861267 23.16862809 23.23227819 23.1686281h43.60030288L434.15595557 545.67119611c-8.97466089 8.97466089-8.97466089 23.80512888 0 32.77978977 8.97466089 8.97466089 23.80512888 8.97466089 32.77978977 0l45.38250505-45.38250504 45.38250504 45.38250504c8.97466089 8.97466089 23.80512888 8.97466089 32.77978977 0 8.97466089-8.97466089 8.97466089-23.80512888 0-32.77978977l-49.32880983-49.32880984h43.72760304c12.79366552 0 23.23227818-10.43861267 23.23227817-23.16862809 0-12.79366552-10.43861267-23.23227818-23.23227818-23.2322782H535.55052858v-20.68627509h49.32880983c12.79366552 0 23.23227818-10.43861267 23.23227817-23.23227817s-10.43861267-23.23227818-23.23227818-23.23227818H535.55052858v-34.3710417c0-12.79366552-10.43861267-23.23227818-23.2322782-23.23227818S489.0859722 335.62594132000004 489.0859722 348.41960683v34.37104171h-49.32880983c-12.79366552 0-23.23227818 10.43861267-23.23227819 23.23227818s10.43861267 23.23227818 23.23227819 23.23227818H489.0859722v20.68627508h-49.20150968z m181.78462051-266.63017342H403.15836798c-12.79366552 0-23.23227818 10.43861267-23.23227819 23.16862811 0 12.79366552 10.43861267 23.23227818 23.23227819 23.23227818h218.51071506c12.79366552 0 23.23227818-10.43861267 23.23227818-23.23227819-0.06365008-12.79366552-10.43861267-23.16862809-23.23227819-23.1686281z m0 83.12700084H403.15836798c-12.79366552 0-23.23227818 10.43861267-23.23227819 23.23227818s10.43861267 23.23227818 23.23227819 23.23227818h218.51071506c12.79366552 0 23.23227818-10.43861267 23.23227818-23.23227818-0.06365008-12.92096568-10.43861267-23.23227818-23.23227819-23.23227818z"  horiz-adv-x="1024" />

    
    <glyph glyph-name="fenxiao-wodedianpu" unicode="&#58950;" d="M847.24495666 551.33605298M830.18673597 490.6775294c0 0.38190046-0.12730015 0.63650077-0.12730017 1.01840124-0.25460031 1.40030169-0.63650077 2.60965316-1.14570138 3.88265471L773.92006772 632.23530112c-9.42021143 28.1969842-35.70769332 45.8280556-68.67843331 45.82805558H320.03136714c-32.33423923 0-57.47601972-17.24917092-66.57798076-44.42775388L194.44976481 494.17828365c-0.25460031-0.89110107-0.63650077-2.03680247-0.89110108-3.24615395C189.29410855 477.69291365 187.13000592 464.26274737 187.13000592 450.64163084c0-47.67390784 26.16018173-91.21056065 68.23288278-113.61538781 17.24917092-9.29291127 37.61719564-13.93936691 60.53122342-13.93936692h0.12730015c38.38099656 0.12730015 73.96138972 16.99457062 98.27571923 45.8280556 24.18702934-28.70618483 59.38552204-45.44615513 97.76651857-45.70075544 37.9990961 0.25460031 73.26123886 17.12187077 97.25731799 45.82805558 24.31432949-28.96078513 59.89472266-45.70075543 98.53031951-45.70075543 23.42322842 0.12730015 44.04585342 5.02835611 61.54962466 14.57586768 41.37255019 22.65942748 67.08718138 65.94147998 67.08718139 113.1061872 0 13.74841667-2.29140277 27.30588313-6.30135766 39.6539981z m-136.40211546-22.78672764H319.26756621c-12.98461575 0-23.42322842 10.43861267-23.42322841 23.42322841s10.43861267 23.42322842 23.4232284 23.42322842h374.64435446c12.98461575 0 23.42322842-10.43861267 23.42322841-23.42322842s-10.62956289-23.42322842-23.55052856-23.42322841z m0 0M787.92308471 280.63227462c0 12.98461575-10.43861267 23.42322842-23.42322843 23.4232284-2.41870294 0-4.51915549-0.63650077-6.81055826-1.40030169-17.37647107-6.93785842-39.52669795-10.56591282-56.26666824-9.67481174-36.8533947 2.03680247-65.05037891 9.29291127-92.10166173 32.33423923-26.66938236-22.78672764-60.78582373-35.70769332-97.00271766-36.08959379-36.72609456 0.25460031-71.09713625 9.42021143-97.89381875 32.33423923-27.05128281-23.04132796-61.54962466-34.24374154-98.27571921-34.24374154h-0.12730016c-22.40482718 0-35.13484262 4.26455517-55.50286733 11.83891436-0.50920062 0.25460031-1.1457014 0.38190046-1.78220216 0.63650076-1.01840124 0.38190046-1.78220216 0.63650077-2.80060339 1.01840124 0 0-3.37345409 0.63650077-5.15565626 0.63650078-12.98461575 0-23.42322842-10.56591282-23.42322841-23.42322842l0.12730016-125.45430217c0-32.97073999 26.92398267-59.89472266 60.0220228-59.89472266l440.58583445 0.25460032c32.97073999 0.12730015 59.89472266 27.05128281 59.89472265 60.0220228l-0.06365007 127.68205488z m0 0"  horiz-adv-x="1024" />

    
    <glyph glyph-name="fenxiao-fenxiaojilu" unicode="&#58951;" d="M869.55970217 562.50830423M584.02788029 730.12077916h-152.06640082c-18.66886637 0-33.53607218-16.56437553-33.53607285-37.1340722 0-20.56969598 14.9350931-37.20195882 33.53607285-37.20195882h153.01681562c17.71845089 0 32.653544 16.63226283 32.65354399 37.20195882 0 20.50180936-14.9350931 37.1340722-33.60395879 37.1340722z m165.10066363-24.77867701H673.43477766c0.74675493-4.07320709 1.22196199-8.14641417 1.22196199-12.35539519 0-31.22792144-22.60629953-61.98063583-49.62524065-61.98063582H392.38348262c-28.37667635 0-51.05086319 30.75271438-51.05086319 61.98063582 0 4.14109372 0.47520774 8.28218811 1.22196267 12.35539519H265.91040035c-61.64120201 0-76.77995499-34.96169471-76.77995498-85.33369028v-499.17153809c0-54.10576884 21.65588473-84.45116211 81.39625645-84.45116211h473.91765402c59.74037172 0 88.79591637 23.76037489 88.79591636 84.38327548V620.0084118699999c0 50.37199557-27.15471437 85.33369028-84.11172828 85.33369028z m-77.7982571-492.85806758H342.01148772c-12.15173463 0-24.23558264 14.86720648-24.23558263 27.0189411 0 12.083848 10.25090502 22.47052627 22.40263897 22.47052627h328.36838497c12.15173463 0 22.40263965-9.43626347 23.28516714-22.47052627 0-12.083848-8.35007473-27.01894111-20.50180936-27.0189411z m1.35773591 132.17557313H343.36922297c-12.15173463 0-19.89082836 13.03426282-19.89082836 25.18599744 0 12.15173463 10.25090502 24.30346927 22.40263965 24.30346925H674.24941853c12.15173463 0 22.40263965-11.26920645 23.28516784-24.30346925 0.06788663-12.083848-12.76271562-25.18599744-24.84656364-25.18599744z m0 135.77357181H343.36922297c-12.15173463 0-19.89082836 13.03426282-19.89082836 25.18599811 0 12.15173463 10.25090502 24.30346927 22.40263965 24.30346925H674.24941853c12.15173463 0 22.40263965-11.26920645 23.28516784-24.30346925 0.06788663-12.15173463-12.76271562-25.18599744-24.84656364-25.18599811z m0 0"  horiz-adv-x="1024" />

    
    <glyph glyph-name="fenxiao-wodetuandui" unicode="&#58952;" d="M755.33424517 236.90467156c0 2.67330325-1.33665162 5.41025656-2.73695333 9.48386152 0 1.33665162 0 2.73695332-1.33665162 4.07360493-1.33665162 4.07360495-2.73695332 8.14720987-5.41025657 12.15716476v1.33665161c-1.33665162 4.07360495-4.07360495 6.74690818-5.41025656 10.82051313-1.33665162 1.33665162-1.33665162 2.73695332-2.73695331 4.07360494-1.33665162 2.67330325-4.07360495 5.41025656-5.41025656 8.14720988-1.33665162 1.33665162-1.33665162 2.73695332-2.67330325 2.73695333-2.73695332 2.73695332-5.41025656 6.74690818-9.48386149 9.48386149l-1.33665163 1.33665164-8.14720988 8.14720988c-1.33665162 1.33665162-2.73695332 2.67330325-4.07360495 2.67330323-2.73695332 1.33665162-5.41025656 4.07360495-6.74690818 5.41025657-1.33665162 1.33665162-2.73695332 1.33665162-4.07360495 2.73695332-4.07360495 2.73695332-8.14720987 5.41025656-10.82051311 6.74690819-1.33665162 1.33665162-2.73695332 1.33665162-4.07360495 1.33665161-2.73695332 1.33665162-5.41025656 2.73695332-9.4838615 5.41025657-1.33665162 1.33665162-4.07360495 1.33665162-5.41025656 2.73695332l-8.14720989 4.07360494c-1.33665162 1.33665162-4.07360495 1.33665162-5.41025656 2.73695331l-12.15716476 4.07360495c-10.82051313 4.07360495-20.30437463 6.74690818-31.12488774 8.14720988 40.60874926 32.46153938 66.25973038 87.9644067 66.25973038 150.15053214 0 104.1951764-73.07028864 189.42262978-162.37134697 189.42262977S350.64705428 609.13032309 350.64705428 504.9351467c0-62.24977552 25.71463118-117.68899277 64.92307875-151.55083384-9.2292612-1.46395178-20.04977433-4.20090509-30.87028745-8.21085996l-12.15716474-4.07360493c-1.33665162-1.33665162-4.07360495-1.33665162-5.41025657-2.67330325l-8.14720987-4.07360494c-1.33665162-1.33665162-4.07360495-1.33665162-5.41025656-2.73695332-2.73695332-1.33665162-5.41025656-2.73695332-9.48386151-5.41025657-1.33665162-1.33665162-2.73695332-1.33665162-4.07360495-1.33665162-4.07360495-2.67330325-8.14720987-5.41025656-10.82051312-6.74690819-1.33665162-1.33665162-2.73695332-1.33665162-4.07360495-2.73695332-2.73695332-1.33665162-5.41025656-4.07360495-6.74690818-5.41025656-1.33665162-1.33665162-2.73695332-2.73695332-4.07360494-2.73695331l-8.14720988-8.14720988-10.82051313-10.82051314c-1.33665162-1.33665162-1.33665162-2.73695332-2.73695332-2.73695332-1.33665162-2.73695332-4.07360495-5.41025656-5.41025657-8.14720988-1.33665162-1.33665162-1.33665162-2.73695332-2.73695331-4.07360493-1.33665162-5.41025656-2.67330325-8.14720987-4.07360494-12.15716475v-1.33665162c-1.33665162-4.07360495-4.07360495-8.14720987-5.41025657-12.15716475 0-1.33665162-1.33665162-2.73695332-1.33665162-4.07360494-1.33665162-2.73695332-1.33665162-5.41025656-2.73695331-9.48386151v-4.07360493c-1.33665162-1.33665162-1.33665162-5.41025656-1.33665163-9.48386151v-13.55746644c0-74.40694026 33.798191-135.32006414 108.20513126-135.32006416h270.57647821c74.40694026 0 108.20513125 60.84947382 108.20513126 135.32006416v13.55746644c0 4.07360495 0 8.14720987-1.33665162 12.15716474v4.20090509zM415.76108325 534.53243259c9.48386151 33.798191 29.78823614 60.84947382 54.10256564 77.14389359 9.48386151 5.41025656 20.30437463-1.33665162 20.30437464-12.15716476 0-4.07360495-2.73695332-8.14720987-6.7469082-10.82051311-20.30437463-12.15716475-35.1984927-33.798191-43.28205249-62.24977552-1.33665162-5.41025656-6.74690818-9.48386151-13.55746645-9.48386151-5.41025656 0-12.15716475 9.48386151-10.82051314 17.56742131z m0 0M377.88928732 364.07752583c-32.46153938 35.1984927-54.10256563 85.22745338-54.10256562 140.73032071 0 40.60874926 10.82051313 77.14389357 29.78823614 108.20513126h-2.73695333c-59.5128222 0-108.20513125-55.43921725-108.20513126-123.09924932 0-40.60874926 17.56742131-75.74359188 43.2820525-98.78491984-46.01900582-9.48386151-97.38461813-44.61870412-97.38461812-86.564105v-9.4838615c0-41.94540089 17.56742131-77.14389357 54.10256562-86.564105v25.71463119c0 62.18612543 68.9966837 113.61538781 135.25641408 129.84615749zM740.50377718 391.12880865c27.05128281 22.97767788 43.28205251 58.17617057 43.2820525 98.78491983 0 67.66003208-48.69230907 123.09924932-108.20513125 123.09924932h-2.67330325c18.967723-31.12488775 29.78823614-67.66003208 29.78823613-108.20513126 0-55.43921725-20.30437463-105.53182801-54.10256562-140.73032071 66.1960803-16.23076969 135.19276399-67.66003208 135.19276399-129.8461575v-25.7146312c36.53514432 8.14720987 54.10256563 43.28205251 54.10256563 86.56410502v9.48386149c0 41.94540089-51.42926239 77.0802435-97.38461813 86.56410501z m0-1e-8"  horiz-adv-x="1024" />

    
    <glyph glyph-name="fenxiao-paihangbang" unicode="&#58953;" d="M847.24495666 551.33605298M799.31644852 62.75806032000003S585.57948925 220.80120203 564.06576316 236.96832164c-21.57737618 16.16711962-35.89864355 23.35957834-52.06576316 23.35957835-17.94932177 0-32.33423923-12.53906521-53.84796532-28.70618483-19.73152393-16.16711962-233.4684832-168.80000477-233.4684832-168.80000476-19.73152393 0-35.89864355 16.16711962-35.89864355 35.89864355V655.40392922C188.72125785 685.89231621 212.08083619 709.25189453 242.63287325 709.25189453h538.7342535c30.55203706 0 53.84796532-23.35957834 53.84796532-53.84796531v-556.74722535c0.06365008-19.73152393-16.10346953-35.89864355-35.89864355-35.89864354z m-240.59729185 484.88628819L512 637.45460745l-46.71915668-89.81025894-97.00271766-19.73152394 66.45068061-75.42534149-10.75686305-102.34932416L512 393.16561112l87.9644067-43.09110227-12.60271528 102.34932415L655.65822427 527.84917449l-96.9390676 19.79517402z"  horiz-adv-x="1024" />

    
    <glyph glyph-name="save" unicode="&#59146;" d="M758.9 178.2c0-22.7-18.3-41.1-41-41.1H306.4c-11 0-21.4 4.2-29.2 12-7.8 7.8-12.1 18.1-12.1 29.1V589.7c0 22.8 18.5 41.2 41.3 41.2h41.2v-164.7c0-22.7 18.3-41.1 41-41.1h247c22.7 0 41.2 18.4 41.2 41.1V630.9h41.1c22.7 0 41.2-18.5 41.1-41.2v-411.5zM634.2 629.5v-161.9H390.1V629.5h244.1z m83.5 42.5H306.3c-45.5 0-82.3-36.8-82.3-82.3v-411.4c0-45.5 36.8-82.3 82.3-82.3h411.4c45.5 0 82.3 36.8 82.3 82.3V589.7c0 45.5-36.8 82.3-82.3 82.3zM512.1 494.8c8.8 0 16 10.9 16 24.4v47.2c0 13.5-7.2 24.4-16 24.4s-16-10.9-16-24.4v-47.2c0-13.5 7.2-24.4 16-24.4z"  horiz-adv-x="1024" />

    
    <glyph glyph-name="Eye" unicode="&#59148;" d="M512 195.84000000000003c-151.36000001 0-284.8 133.86666668-332.69333334 188.16 47.78666667 54.4 180.80000001 188.05333334 332.69333334 188.05333334 151.36000001 0 284.8-133.86666668 332.69333334-188.16000002C796.90666668 329.6 663.89333333 195.84000000000003 512 195.84000000000003z m0 413.97333334C301.01333333 609.81333334 129.92 384 129.92 384S301.01333333 158.18666666000001 512 158.18666666000001 894.08 384 894.08 384 722.98666667 609.81333334 512 609.81333334zM512 314.55999999000005c-38.29333334 0-69.44000001 31.14666667-69.44000001 69.44000001s31.14666667 69.44000001 69.44000001 69.44000001 69.44000001-31.14666667 69.44000001-69.44000001-31.14666667-69.44000001-69.44000001-69.44000001z m0 173.65333335c-57.6 0-104.21333334-46.61333334-104.21333334-104.21333334s46.61333334-104.21333334 104.21333334-104.21333334 104.21333334 46.61333334 104.21333334 104.21333334-46.61333334 104.21333334-104.21333334 104.21333334z"  horiz-adv-x="1024" />

    
    <glyph glyph-name="Release" unicode="&#59149;" d="M705.88671875 231.7734375l-174.0234375 53.34960938 236.51367188 279.49218749-62.49023438-332.84179687z m120.05859375 421.25976563c-5.53710938 10.81054688-18.984375 15.29296875-30.14648438 9.84374999L208.16210937 377.93554687000005c-11.07421875-5.36132813-15.64453125-18.54492188-10.10742187-29.44335937 1.23046875-2.37304688 2.8125-4.48242188 4.65820313-6.24023438 2.4609375-2.28515625 5.36132813-4.04296875 8.7890625-5.09765624l197.66601562-60.64453125 30.32226563 36.73828125L278.2109375 362.81835937000005l442.6171875 214.80468751-236.77734375-279.84375001c-0.52734375-0.61523438-1.0546875-1.31835938-1.49414063-2.02148437l-27.33398437-33.22265625v-137.72460938c0-12.12890625 10.01953125-21.97265625 22.5-21.97265624 12.48046875 0 22.5 9.75585938 22.5 21.97265625V248.82421875l215.06835938-65.83007813c2.54882813-0.703125 5.09765625-1.0546875 7.55859374-0.96679687 10.8984375-0.26367188 20.7421875 7.20703125 22.76367188 18.01757813l82.35351563 439.18945312c0.26367188 1.49414063 0.3515625 2.98828125 0.35156249 4.48242188-0.08789063 2.98828125-0.703125 6.24023438-2.37304687 9.31640624z"  horiz-adv-x="1024" />

    
    <glyph glyph-name="color" unicode="&#59150;" d="M286.53124999 351.75m-32.24999998 0a32.25 32.25 0 1 1 64.5 0 32.25 32.25 0 1 1-64.5 0ZM318.6875 448.40625001m-32.25 0a32.25 32.25 0 1 1 64.5 0 32.25 32.25 0 1 1-64.5 0ZM463.71874999 528.9375m-48.28124999 0a48.28125001 48.28125001 0 1 1 96.5625 0 48.28125001 48.28125001 0 1 1-96.5625 0ZM592.53125001 528.9375m-48.28125001 0a48.28125001 48.28125001 0 1 1 96.5625 0 48.28125001 48.28125001 0 1 1-96.5625 0ZM860.46875001 572.4375l-0.56250002 0.46875001c-7.125 6.5625-18 5.71875001-24.1875-1.78125001l-258.74999998-312.84375001-32.71875001-67.49999998 58.6875 42.9375L862.15625001 547.125c6.1875 7.40625001 5.4375 18.75-1.68750002 25.3125zM815.84375001 410.0625c-9.65625001 0-17.53125001-7.59375001-18.18750002-17.25h-0.09374999s-25.3125-137.4375-135.84375001-210.75C542.5625 102.84374998999999 406.0625 138.46874999 380.75 184.21874999c-13.96875001 25.125-35.15625001 67.50000001-47.25000001 77.71875001-32.4375 27.5625-114.46875001-10.59375001-131.62499999 31.21875001C169.8125 370.875 245.375 572.25 432.59374999 622.125c130.96875001 35.53125001 242.53125001-7.3125 298.50000002-54.9375 3.09375001-2.71875001 7.125-4.3125 11.53124999-4.3125 9.84375001 0 17.8125 8.15625001 17.8125 18.1875 0 6-2.90625001 11.34375001-7.3125 14.625-23.53125001 20.25-172.21875001 136.50000001-379.78125001 41.0625-226.78125001-104.0625-241.125-321.1875-193.68749998-375.46875001s116.625-11.34375001 131.99999998-29.34374999c9.84375001-11.53125001 22.59375001-42 39.375-69.65625001 24.28125001-40.125 145.6875-124.3125 330.84375001-11.99999998 111.09375001 67.40625001 150.9375 222.65625001 152.34375001 239.62499998h-0.09375001c0 0.46875001 0.09375001 0.9375 0.09374999 1.50000002-0.09375001 10.21875001-8.25 18.65625001-18.375 18.65624999z"  horiz-adv-x="1024" />

    
    <glyph glyph-name="iphone" unicode="&#59151;" d="M690.21875 668.25c-8.625 8.8125-20.0625 13.6875-32.25 13.6875H366.03125c-25.125 0-45.5625-21-45.5625-46.78125V132.75c0-25.78125 20.4375-46.78125 45.5625-46.78125h291.9375c25.125 0 45.5625 21 45.5625 46.78125V635.25c0 12.46875-4.6875 24.1875-13.3125 33z m-29.25-454.5v-73.78125c0-3-1.3125-5.90625-3.75-8.0625s-5.625-3.375-9.09375-3.375H375.875c-7.125 0-12.84375 5.0625-12.84375 11.34375V623.90625c0 8.53125 5.8125 15.46875 12.84375 15.46875h272.15625c7.125 0 12.84375-6.9375 12.84375-15.46875v-410.15625z"  horiz-adv-x="1024" />

    
    <glyph glyph-name="delete" unicode="&#59152;" d="M593.23733333 221.63911111000004c0-11.37777778-8.87466667-20.36622222-20.25244444-20.36622222-10.92266667 0-20.25244445 8.87466667-20.25244444 20.36622222v243.48444444c0 11.37777778 8.87466667 20.36622222 20.25244444 20.36622223s20.25244445-8.87466667 20.25244444-20.36622223v-243.48444444z m-121.856 0c0-11.37777778-8.87466667-20.36622222-20.25244444-20.36622222s-20.25244445 8.87466667-20.25244444 20.36622222v243.48444444c0 11.37777778 8.87466667 20.36622222 20.25244444 20.36622223s20.25244445-8.87466667 20.25244444-20.36622223v-243.48444444zM593.23733333 647.96444445v-40.61866667H430.76266667V647.96444445h162.47466666z m-304.35555555-89.54311112l5.00622222-460.11733333c1.13777778-11.03644445 11.15022222-18.88711111 22.86933333-18.88711111h390.25777778c11.71911111 0 21.27644445 7.85066667 22.86933334 18.88711111l4.5511111 460.11733333h79.30311112c12.85688889 0 22.86933333 9.44355555 22.86933333 21.504 0 12.06044445-10.01244445 21.504-22.86933333 21.504H638.17955555v65.536c0 12.06044445-10.01244445 21.504-22.86933333 21.504H408.576c-12.85688889 0-22.86933333-9.44355555-22.86933333-21.504v-65.536H210.14755555c-12.85688889 0-22.86933333-9.44355555-22.86933333-21.504 0-12.06044445 10.58133333-21.504 22.86933333-21.504h78.73422223z"  horiz-adv-x="1024" />

    
    <glyph glyph-name="edit" unicode="&#59154;" d="M574.00888889 623.27466667l-38.00177778-38.00177778 67.47022222-67.584 38.00177778 38.00177778-67.47022222 67.584zM218.22577778 317.44000000000005c0 5.46133333 2.50311111 10.46755555 6.03022222 14.56355555l267.83288889 267.8328889 66.90133333 67.584c8.53333333 7.96444445 21.504 7.96444445 29.46844445 0l95.91466666-97.05244445c7.96444445-8.53333333 7.96444445-21.504 0-29.58222222L349.63911111 205.25511111000003c-3.98222222-3.98222222-8.98844445-6.03022222-14.44977778-6.03022222l-96.93866666-0.45511111c-5.46133333 0-10.46755555 2.048-14.44977778 6.03022222s-6.03022222 9.55733333-6.03022222 15.01866667l0.45511111 97.62133333z m567.06844444-181.70311111c11.49155555 0 20.93511111-9.55733333 20.93511111-20.48s-8.98844445-20.48-20.48-20.48H238.70577778c-11.03644445 0-20.48 9.55733333-20.48 20.48s8.98844445 20.48 20.48 20.48h546.58844444z"  horiz-adv-x="1024" />

    
    <glyph glyph-name="new" unicode="&#59156;" d="M745.06666667 416.10666667H544.10666667V617.06666667c0 17.70666667-14.4 32.21333333-32.10666667 32.21333333s-32.10666667-14.4-32.10666667-32.21333333V416H278.93333333c-17.70666667 0-32.21333333-14.4-32.21333333-32.10666667s14.4-32.10666667 32.21333333-32.10666666H480v-201.06666667c0-17.70666667 14.4-32.21333333 32.10666667-32.21333333s32.10666667 14.4 32.10666666 32.21333333V351.89333333h201.06666667c17.70666667 0 32.21333333 14.4 32.21333333 32.10666667s-14.61333333 32.10666667-32.42666666 32.10666667z"  horiz-adv-x="1024" />

    
    <glyph glyph-name="upload" unicode="&#59155;" d="M495.35626528 295.47889763c-48.90017634 0-88.52110237 39.7682157-88.52110236 88.52110237 0 48.90017634 39.7682157 88.52110237 88.52110236 88.52110237s88.52110237-39.7682157 88.52110236-88.52110237c0.1472897-48.90017634-39.62092601-88.52110237-88.52110236-88.52110237z m0 221.37640076c-73.35026451 0-132.85529839-59.65232355-132.85529839-132.85529839 0-73.35026451 59.65232355-132.85529839 132.85529839-132.85529839s132.85529839 59.65232355 132.85529839 132.85529839c0 73.35026451-59.50503387 132.85529839-132.85529839 132.85529839zM540.27962006 163.50733738999998H260.87108231c-11.78317502 0-21.50429441 10.16298847-21.50429442 22.68261191v362.33263197c0 12.51962347 9.72111939 22.68261193 21.50429442 22.6826119h64.51288325c11.93046471 0 21.50429441 10.16298847 21.50429442 22.68261193s-9.5738297 22.68261193-21.50429442 22.68261192h-64.51288325c-35.49681476 0-64.51288325-30.48896537-64.51288325-67.90054608v-362.33263195c0-37.4115807 28.86877882-67.90054606 64.51288325-67.90054607h279.40853775c11.93046471 0 21.50429441 10.16298847 21.50429441 22.68261192 0 12.37233377-9.5738297 22.38803254-21.50429441 22.38803255zM516.71327001 572.23622099h213.57004729c11.78317502 0 21.35700474-10.01569877 21.35700475-22.09345317v-177.1894944c0-12.22504409 9.5738297-22.09345317 21.35700472-22.09345317s21.35700474 9.86840908 21.35700473 22.09345317V550.14276782c0 36.67513227-28.72148912 66.42764919-64.0710142 66.4276492h-213.57004729c-11.78317502 0-21.35700474-9.86840908-21.35700473-22.09345316 0-12.37233377 9.5738297-22.24074286 21.35700473-22.24074287zM718.20556291 540.42164844c-6.1861669 6.1861669-14.72896878 9.72111939-23.41906037 9.72111938s-17.38018317-3.5349525-23.41906035-9.72111938c-6.1861669-6.1861669-9.72111939-14.72896878-9.7211194-23.41906038s3.5349525-17.38018317 9.7211194-23.41906034c6.1861669-6.1861669 14.72896878-9.72111939 23.41906035-9.72111939s17.38018317 3.5349525 23.41906037 9.72111939c6.1861669 6.1861669 9.72111939 14.72896878 9.72111938 23.41906034 0 8.54280189-3.5349525 17.23289347-9.72111938 23.41906038zM462.21608553 666.3543315c0-9.13196064-9.13196064-16.64373472-20.4732666-16.64373473h-91.90876518c-11.34130596 0-20.47326659 7.36448439-20.47326662 16.64373473 0 9.13196064 9.13196064 16.64373472 20.47326662 16.64373472h91.90876518c11.34130596 0 20.47326659-7.51177407 20.4732666-16.64373472zM711.28294758 85.00193377999994c-9.13196064 0-16.64373472 10.75214722-16.64373471 24.1555088V293.41684202c0 13.2560719 7.51177407 24.15550879 16.64373471 24.15550879 9.13196064 0 16.64373472-10.75214722 16.64373471-24.15550879v-184.25939944c0-13.2560719-7.51177407-24.15550879-16.64373471-24.1555088zM595.07138391 201.36078712999995c0 9.13196064 10.75214722 16.64373472 24.15550879 16.64373474h184.25939944c13.40336159 0 24.15550879-7.36448439 24.1555088-16.64373474 0-9.13196064-10.75214722-16.64373472-24.1555088-16.64373471H619.2268927c-13.40336159 0-24.15550879 7.36448439-24.15550879 16.64373471z"  horiz-adv-x="1024" />

    
    <glyph glyph-name="delete1" unicode="&#59159;" d="M386.73066667 638.40711111h239.38844444c15.58755555 0 28.21688889 12.62933333 28.21688889 28.21688889 0 15.58755555-12.62933333 28.21688889-28.21688889 28.21688889H386.73066667c-15.58755555 0-28.21688889-12.62933333-28.21688889-28.21688889 0-15.58755555 12.62933333-28.21688889 28.21688889-28.21688889zM759.35288889 570.59555555H264.64711111c-16.04266667 0-29.01333333-12.97066667-29.01333333-29.01333333v-4.20977777c0-16.04266667 12.97066667-29.01333333 29.01333333-29.01333334h32.42666667v-416.08533333c1.13777778-11.264 11.03644445-19.22844445 22.64177777-19.22844445h384.5688889c11.60533333 0 20.93511111 8.07822222 22.64177777 19.22844445V508.35911111h32.42666667c16.04266667 0 29.01333333 12.97066667 29.01333333 29.01333334v4.20977777c0 16.04266667-12.97066667 29.01333333-29.01333333 29.01333333zM666.73777778 129.59288889000004H357.26222222V508.35911111h311.296L666.73777778 129.59288889000004zM453.74577778 177.60711111c-15.70133333 0-28.55822222 12.85688889-28.55822223 28.55822222V432.92444445c0 15.70133333 12.85688889 28.55822222 28.55822223 28.55822222s28.55822222-12.85688889 28.55822222-28.55822222v-226.75911112c0-15.70133333-12.85688889-28.55822222-28.55822222-28.55822222zM570.25422222 177.60711111c-15.70133333 0-28.55822222 12.85688889-28.55822222 28.55822222V432.92444445c0 15.70133333 12.85688889 28.55822222 28.55822222 28.55822222s28.55822222-12.85688889 28.55822223-28.55822222v-226.75911112c0-15.70133333-12.85688889-28.55822222-28.55822223-28.55822222z"  horiz-adv-x="1024" />

    
    <glyph glyph-name="Set" unicode="&#59160;" d="M512 443.4375c33.09375 0 59.8125-26.53125 59.8125-59.4375s-26.71875-59.4375-59.8125-59.4375-59.8125 26.53125-59.8125 59.4375 26.71875 59.4375 59.8125 59.4375z m0-178.3125c66 0 119.71875 53.25 119.71875 118.875 0 65.53125-53.625 118.875-119.71875 118.875-66 0-119.71875-53.25-119.71875-118.875 0-65.53125 53.71875-118.875 119.71875-118.875zM323.65625 418.21875c4.78125 26.8125 15.375 51.1875 30.28125 73.21875 5.25 7.6875 4.3125 18.1875-2.4375 24.9375l-22.125 22.5 26.4375 26.34375 22.59375-22.5c6.75-6.65625 17.34375-7.6875 25.03125-2.4375 22.125 15.28125 47.15625 25.40625 73.59375 30.1875 9.1875 1.875 16.3125 9.5625 16.3125 19.125v32.0625h37.5v-32.0625c0-9.5625 6.75-17.71875 15.84375-19.125 26.4375-4.78125 51-15.28125 73.125-30.1875 7.6875-5.25 18.28125-4.3125 25.03125 2.4375l23.0625 22.96875 26.4375-26.34375-23.0625-22.96875c-6.75-6.65625-7.6875-17.25-2.4375-24.9375 14.90625-22.03125 25.03125-46.40625 30.28125-72.75 1.96875-9.09375 10.125-16.3125 19.21875-16.3125H751.0625v-37.3125h-32.71875c-9.65625 0-17.8125-6.65625-19.21875-15.75-4.78125-26.34375-14.90625-50.71875-30.28125-72.75-5.25-7.6875-4.3125-18.1875 2.4375-24.84375l23.0625-22.96875-26.4375-26.34375-23.0625 22.96875c-6.75 6.65625-17.34375 7.6875-25.03125 2.4375-22.125-15.28125-46.6875-25.40625-73.125-30.1875-9.1875-1.875-15.84375-10.03125-15.84375-19.125v-32.0625h-37.5v32.0625c0 9.5625-6.75 17.71875-16.3125 19.125-26.90625 4.78125-51.46875 14.8125-73.59375 30.1875-7.6875 5.25-18.28125 4.3125-25.03125-2.4375l-22.59375-22.5-26.4375 24.84375 22.59375 22.5c6.75 6.65625 7.6875 17.25 2.4375 24.84375-15.375 22.03125-25.5 46.875-30.75 73.21875-1.96875 9.09375-9.65625 15.75-19.21875 15.75h-31.78125v37.3125h31.78125c9.09375 0.5625 17.25 7.3125 19.21875 16.875z m-89.71875 27.28125c-11.8125 0-21.09375-9.1875-21.09375-21v-81.9375c0-11.8125 9.28125-21 21.09375-21h38.625c5.625-22.03125 14.4375-43.03125 26.25-62.53125L272 232.40625c-8.25-8.15625-8.25-21.46875 0-29.71875l58.21875-57.84375c8.25-8.15625 21.65625-8.15625 29.90625 0l27.28125 27.1875c19.59375-11.25 40.6875-19.96875 62.8125-25.59375v-38.4375c0-11.8125 9.28125-21 21.09375-21h82.40625c11.8125 0 21.09375 9.1875 21.09375 21V146.8125c22.125 5.625 42.75 14.34375 62.34375 25.59375l27.84375-27.65625c8.25-8.15625 21.65625-8.15625 29.90625 0l58.21875 57.84375c8.25 8.15625 8.25 21.46875 0 29.71875l-27.84375 27.65625c11.34375 19.5 20.0625 39.9375 25.78125 61.96875h39.09375c11.8125 0 21.09375 9.1875 21.09375 21v81.9375c0 11.8125-9.28125 21-21.09375 21H751.0625c-5.625 22.03125-14.4375 42.46875-25.78125 61.96875l27.84375 27.65625c8.25 8.15625 8.25 21.46875 0 29.71875l-58.6875 57.375c-8.25 8.15625-21.65625 8.15625-29.90625 0l-27.28125-27.1875c-19.59375 11.25-40.6875 19.96875-62.8125 26.15625v38.4375c0 11.8125-9.28125 21-21.09375 21h-82.40625c-11.8125 0-21.09375-9.1875-21.09375-21v-38.4375c-22.125-5.625-43.21875-14.34375-62.8125-25.59375l-27.28125 27.1875c-8.25 8.15625-21.65625 8.15625-29.90625 0l-58.21875-58.40625c-8.25-8.15625-8.25-21.46875 0-29.71875l26.8125-26.625c-11.8125-19.5-20.625-40.5-26.25-63h-38.25z"  horiz-adv-x="1024" />

    
    <glyph glyph-name="code" unicode="&#59162;" d="M713.1 274.79999999999995h-45.7v91.4H530.3v-228.5H576V320.5h45.7v-91.4h137.1V366.20000000000005h-45.7zM713.1 183.39999999999998h45.7v-45.7h-45.7zM356.6 273.4h45.7v-44.9h-45.7zM356.6 542h45.7v-45.7h-45.7zM265.2 631.3V407h228.5V631.3H265.2zM448 451.8H310.9V586.4H448v-134.6zM621.7 542h45.7v-45.7h-45.7zM530.3 631.3V407h228.5V631.3H530.3z m182.8-179.5H576V586.4h137.1v-134.6zM630.8 182.60000000000002h45.7v-44.9h-45.7zM310.9 319.5H448v-137.1H310.9V319.5z m-45.7-182.8h228.5V365.20000000000005H265.2v-228.5z"  horiz-adv-x="1024" />

    
    <glyph glyph-name="blank-add" unicode="&#59163;" d="M485.8 410.2V687.1c0 13.6 11.7 24.6 26.2 24.6s26.2-11 26.2-24.6v-276.8h275.2c14.5 0 26.2-11.7 26.2-26.2s-11.7-26.2-26.2-26.2H538.2v-276.8c0-13.6-11.7-24.6-26.2-24.6s-26.2 11-26.2 24.6V357.8H210.6c-14.5 0-26.2 11.7-26.2 26.2s11.7 26.2 26.2 26.2h275.2z"  horiz-adv-x="1024" />

    
    <glyph glyph-name="bianji1" unicode="&#59167;" d="M264.30577778 308.56533333000004l-0.45511111-67.47022222 66.67377778 0.45511111 242.23288888 246.44266667-66.21866666 67.47022222-242.23288889-246.89777778zM572.87111111 622.93333333l-37.31911111-38.00177778 66.21866667-67.47022222 37.31911111 38.00177778-66.21866667 67.47022222z m-349.29777778-305.37955555c0 5.46133333 2.50311111 10.46755555 5.91644445 14.44977777l262.94044444 267.37777778 65.76355556 67.47022222c8.30577778 7.96444445 21.04888889 7.96444445 28.89955555 0l94.208-96.93866666c7.85066667-8.53333333 7.85066667-21.504 0-29.46844444L352.59733333 205.59644445000004c-3.86844445-3.98222222-8.87466667-6.03022222-14.22222222-6.03022223l-95.11822222-0.45511111c-5.34755555 0-10.35377778 2.048-14.22222222 6.03022222s-5.91644445 9.44355555-5.91644445 15.01866667l0.45511111 97.39377778z m556.71466667-181.47555556c11.264 0 20.59377778-9.44355555 20.59377778-20.48s-8.87466667-20.48-20.13866667-20.48h-537.03111111c-10.80888889 0-20.13866667 9.44355555-20.13866667 20.48s8.87466667 20.48 20.13866667 20.48h536.576z"  horiz-adv-x="1024" />

    
    <glyph glyph-name="tongji1" unicode="&#59169;" d="M341.21955555 476.16h-89.31555555c-18.31822222 0-33.10933333-14.44977778-33.10933333-32.08533333v-292.52266667c0-17.74933333 14.90488889-32.08533333 33.10933333-32.08533333h89.31555555c18.31822222 0 33.10933333 14.44977778 33.10933334 32.08533333V444.07466667c0.11377778 17.74933333-14.79111111 32.08533333-33.10933334 32.08533333z m-7.6231111-315.84711111h-74.06933334V435.42755555h74.06933334v-275.11466666zM772.096 361.35822222h-89.31555555c-18.31822222 0-33.10933333-14.44977778-33.10933334-32.19911111v-177.37955556c0-17.74933333 14.90488889-32.19911111 33.10933334-32.1991111h89.31555555c18.31822222 0 33.10933333 14.44977778 33.10933333 32.1991111V329.04533332999995c0 17.86311111-14.79111111 32.31288889-33.10933333 32.31288889z m-7.62311111-201.04533333h-74.06933334V320.51199999999994h74.06933334v-160.19911111zM571.05066667 648.53333333h-89.31555556c-18.31822222 0-33.10933333-14.336-33.10933333-31.97155555v-465.00977778c0-17.63555555 14.90488889-31.97155555 33.10933333-31.97155555h89.31555556c18.31822222 0 33.10933333 14.336 33.10933333 31.97155555V616.56177778c0 17.63555555-14.79111111 31.97155555-33.10933333 31.97155555z m-7.62311112-488.22044444h-74.06933333V607.6871111099999h74.06933333v-447.37422222z"  horiz-adv-x="1024" />

    
    <glyph glyph-name="jiangpin1" unicode="&#59175;" d="M821.6 556.1c-8.7 8.7-20.2 13.5-32.4 13.5h-80.1c6.1 11.8 9.2 25 9.2 38.4 0 46.5-37.8 84.3-84.3 84.3-28.4 0-54.4-9.7-77.2-28.9C540 649.3 525 630.2 512 606.5c-13 23.7-28 42.8-44.8 56.9-22.8 19.2-48.8 28.9-77.2 28.9-46.5 0-84.3-37.8-84.3-84.3 0-13.4 3.2-26.6 9.2-38.4h-80.1c-25.3 0-45.8-20.5-45.8-45.8v-97.1c0-24.3 18.8-44.1 42.9-45.6v-252.4c0-29.2 23.7-52.9 52.9-52.9h454.3c29.2 0 52.9 23.7 52.9 52.9V381.1c24.1 1.5 42.9 21.4 42.9 45.6V523.8c0 12.2-4.7 23.7-13.3 32.3zM390 646.4c25 0 60.7-13.4 89-76.8h-91.1c-20.7 0.8-36.2 17.3-36.2 38.4-0.1 20.5 17.8 38.4 38.3 38.4zM497.2 116H284.8c-6.9 0-12.6 5.7-12.6 12.6V380.9h225V116z m0 305.2H234.6c-2.9 0-5.4 2.6-5.4 5.5V523.8c0 3 2.6 5.6 5.6 5.6h262.4v-108.2zM634 646.5c20.5 0 38.4-17.9 38.4-38.4 0-21.1-15.6-37.6-36.3-38.4h-91.2c28.6 63.4 64.2 76.8 89.1 76.8z m117.8-517.8c0-7-5.7-12.7-12.6-12.7H526.8V380.9h225v-252.2z m43 298c0-3-2.6-5.6-5.6-5.6H526.8V529.4h262.4c3 0 5.6-2.6 5.6-5.6v-97.1zM822.3 556.8c-8.8 8.9-20.6 13.8-33.1 13.8h-78.5c5.6 11.6 8.6 24.5 8.6 37.4 0 47-38.3 85.3-85.3 85.3-28.7 0-54.9-9.8-77.9-29.1-16.5-13.8-31.3-32.5-44.1-55.6-12.8 23.1-27.6 41.8-44.1 55.6-23 19.3-49.2 29.1-77.9 29.1-47 0-85.3-38.3-85.3-85.3 0-12.9 3-25.8 8.6-37.4h-78.5c-25.8 0-46.8-21-46.8-46.8v-97.1c0-24.3 18.8-44.6 42.9-46.6v-251.4c0-29.7 24.2-53.9 53.9-53.9h454.3c29.7 0 53.9 24.2 53.9 53.9V380.1c24.1 2 42.9 22.3 42.9 46.6V523.8c0.1 12.4-4.8 24.2-13.6 33zM390 645.4c24.5 0 59.4-13 87.4-74.8h-89.5c-20.1 0.8-35.3 16.8-35.3 37.4 0 19.9 17.5 37.4 37.4 37.4zM230.2 426.7V523.8c0 2.5 2.1 4.6 4.6 4.6h261.4v-106.2H234.6c-2.3 0-4.4 2.1-4.4 4.5z m43-46.8h223V117H284.8c-6.4 0-11.6 5.2-11.6 11.6V379.9z m520.6 46.8c0-2.5-2.1-4.6-4.6-4.6H527.8V528.4h261.4c2.5 0 4.6-2.1 4.6-4.6v-97.1z m-157.7 144h-89.6c28.3 61.8 63.2 74.8 87.5 74.8 19.9 0 37.4-17.5 37.4-37.4 0-20.6-15.2-36.6-35.3-37.4zM739.2 117H527.8V379.9h223v-251.2c0-6.5-5.2-11.7-11.6-11.7zM789.2 568.6h-81.8c6.3 11.7 9.9 25.1 9.9 39.4 0 46-37.3 83.3-83.3 83.3-62.8 0-100.8-47.5-122-86.9-21.2 39.4-59.2 86.9-122 86.9-46 0-83.3-37.3-83.3-83.3 0-14.2 3.6-27.7 9.9-39.4h-81.8c-24.7 0-44.8-20.1-44.8-44.8v-97.1c0-24.1 19.1-43.7 42.9-44.7v-253.3c0-28.6 23.3-51.9 51.9-51.9h454.3c28.6 0 51.9 23.3 51.9 51.9V382c23.8 1 42.9 20.7 42.9 44.7V523.8c0.1 24.7-20 44.8-44.7 44.8zM634 647.5c21.2 0 39.4-18.3 39.4-39.4 0-21.4-16.1-38.6-37.3-39.4h-92.7c13.9 31.3 42.4 78.8 90.6 78.8zM350.6 608c0 21.2 18.3 39.4 39.4 39.4 48.2 0 76.7-47.4 90.5-78.8h-92.7c-21.1 0.8-37.2 18-37.2 39.4zM228.2 426.7V523.8c0 3.6 3 6.6 6.6 6.6h263.4v-110.2H234.8c-3.6-0.1-6.6 3-6.6 6.5z m43-298.1V381.9h227V115H284.8c-7.5 0-13.6 6.1-13.6 13.6z m468-13.6H525.8V381.9h227v-253.2c0-7.6-6.1-13.7-13.6-13.7z m56.6 311.7c0-3.6-3-6.6-6.6-6.6H525.8V530.4h263.4c3.6 0 6.6-3 6.6-6.6v-97.1z"  horiz-adv-x="1024" />

    
    <glyph glyph-name="huifu" unicode="&#59173;" d="M305.52114569 112.66477827000006c-2.84798419 0-5.04869925 0.51781531-7.24941433 1.55344592-5.82542222 2.84798419-9.32067555 8.67340642-9.32067555 15.01664396V211.82640987000002h-80.77918816c-9.19122173 0-16.57008987 7.50832197-16.57008987 16.69954371v410.36863211c0 9.32067555 7.24941431 16.6995437 16.57008987 16.6995437h607.6562647c9.45012939 0 16.57008987-7.1199605 16.57008987-16.6995437v-410.88644742c0-9.32067555-7.24941431-16.6995437-16.57008987-16.6995437H441.18875653l-125.4407585-95.40747062c-2.71853037-2.07126124-6.60214518-3.23634569-10.22685234-3.23634568z m-72.49414322 141.88139456h78.57847308c8.93231408 0 15.92282075-6.73159902 15.92282075-15.40500542v-62.65565235l100.45616987 74.95376592c2.84798419 1.94180741 6.47269136 3.10689185 9.96794469 3.10689185h353.02058667V612.74491259h-557.94599506V254.54617283000005zM375.81457383 475.52385581c-19.5475279 0-35.47034864-16.18172839-35.47034865-35.98816396s15.92282075-35.98816395 35.47034865-35.98816395c19.5475279 0 35.47034864 16.18172839 35.47034864 35.98816395-0.12945383 19.93588939-15.92282075 35.98816395-35.47034864 35.98816396zM512 475.52385581c-19.5475279 0-35.47034864-16.18172839-35.47034864-35.98816396s15.92282075-35.98816395 35.47034864-35.98816395 35.47034864 16.18172839 35.47034864 35.98816395c0 19.93588939-15.92282075 35.98816395-35.47034864 35.98816396zM648.18542617 475.52385581c-19.5475279 0-35.47034864-16.18172839-35.47034864-35.98816396s15.92282075-35.98816395 35.47034864-35.98816395c19.5475279 0 35.47034864 16.18172839 35.47034865 35.98816395 0 19.93588939-15.92282075 35.98816395-35.47034865 35.98816396z"  horiz-adv-x="1024" />

    
    <glyph glyph-name="shanchu2" unicode="&#59176;" d="M707.84 523.6800000000001c-12 0-21.6-9.6-21.6-21.6V144c0-16.32-12.96-29.28-29.28-29.28H367.04c-16.32 0-29.28 12.96-29.28 29.28v358.08c0 12-9.6 21.6-21.6 21.6s-21.6-9.6-21.6-21.6v-374.4c0-30.72 24.96-55.68 55.68-55.68h323.52c30.72 0 55.68 24.96 55.68 55.68v374.4c0 12-9.6 21.6-21.6 21.6zM474.08 195.84000000000003v289.44c0 12-9.6 21.6-21.6 21.6s-21.6-9.6-21.6-21.6v-289.44c0-12 9.6-21.6 21.6-21.6s21.6 9.6 21.6 21.6zM418.4 652.3199999999999h187.68c12 0 21.6 9.6 21.6 21.6s-9.6 21.6-21.6 21.6H418.4c-12 0-21.6-9.6-21.6-21.6s9.6-21.6 21.6-21.6zM776 609.12H248c-12 0-21.6-9.6-21.6-21.6s9.6-21.6 21.6-21.6h528c12 0 21.6 9.6 21.6 21.6s-9.6 21.6-21.6 21.6zM593.6 195.84000000000003v289.44c0 12-9.6 21.6-21.6 21.6s-21.6-9.6-21.6-21.6v-289.44c0-12 9.6-21.6 21.6-21.6 11.52-0.48 21.6 9.6 21.6 21.6z"  horiz-adv-x="1024" />

    
    <glyph glyph-name="dizhi1" unicode="&#59178;" d="M376.25 444.9375c0 76.875 60.84375001 139.3125 135.75 139.3125 74.8125 0 135.75-62.53125001 135.75-139.3125s-60.9375-139.3125-135.75-139.3125c-74.8125 0-135.75 62.53125001-135.75 139.3125z m49.21875001 0c0-49.6875 38.8125-90.09375001 86.53124999-90.09375001s86.53125001 40.40625001 86.53125001 90.09375001c0 49.6875-38.8125 90.09375001-86.53125001 90.09375001-47.71875001 0.09375001-86.53125001-40.40625001-86.53125001-90.09375001zM454.34374999 84.46874998999999c-22.40625001 16.3125-56.34375001 43.03125001-91.31249998 77.90625001-61.03125001 60.75-133.875 155.71875001-133.875 262.40625001 0 160.59375001 126.9375 291.28125001 282.84374999 291.28124999s282.84375001-130.6875 282.84375001-291.28125001c0-106.78125001-72.84375001-201.65625001-133.96875001-262.49999998-34.96875001-34.78125001-69-61.5-91.3125-77.81250002-44.625-32.53125001-51.84375001-32.53125001-57.5625-32.53124999-5.8125 0-12.9375 0-57.65625001 32.53124999z m-175.96874999 340.31250002c0-87.09375001 61.3125-168.1875 112.875-220.87500002 49.875-51.09375001 100.3125-86.25 120.84375001-99.18749998C532.625 117.75 583.0625 152.90624999 632.9375 203.90624999c51.46875001 52.6875 112.875 133.78125001 112.875 220.96875001 0 133.5-104.8125 242.0625-233.625 242.0625S278.375 558.28125001 278.375 424.78125001z"  horiz-adv-x="1024" />

    
    <glyph glyph-name="cart" unicode="&#59187;" d="M692.7 202.9c-48.9-49-112.7-74.6-180.7-74.6s-131.8 25.6-180.7 74.6c-99.9 100.1-99.9 262 0 362.1 48.9 49 112.7 74.6 180.7 74.6S643.8 614 692.7 565c99.9-100.1 99.9-261.9 0-362.1m19.8 381.9C657.8 637.6 586.9 668 512 668s-147.8-30.4-200.5-83.2c-111.4-111.6-111.4-290.1 0-401.7C364.2 130.4 437.1 100 512 100s147.8 30.4 200.5 83.2c111.4 111.5 111.4 290.1 0 401.6M530 402v91.8c0 10.8-7.2 18-18 18s-18-7.2-18-18V402h-91.8c-10.8 0-18-7.2-18-18 0-5.4 1.8-9 5.4-12.6 3.6-3.6 7.2-5.4 12.6-5.4H494v-91.8c0-5.4 1.8-9 5.4-12.6 3.6-3.6 7.2-5.4 12.6-5.4 10.8 0 18 7.2 18 18V366h91.8c10.8 0 18 7.2 18 18s-7.2 18-18 18H530z"  horiz-adv-x="1024" />

    
    <glyph glyph-name="cart1" unicode="&#59188;" d="M392.1 176.8c-0.3 14.4 8.2 27.5 21.4 33.1 13.2 5.6 28.5 2.7 38.7-7.5 10.2-10.2 13.1-25.5 7.5-38.7-5.6-13.2-18.7-21.7-33.1-21.4-19.1 0-34.5 15.5-34.5 34.5z m112.8 0c0.3 31.7-18.6 60.5-47.8 72.9-29.2 12.3-63 5.8-85.6-16.5-22.5-22.3-29.4-56.1-17.3-85.4 12.1-29.4 40.7-48.5 72.4-48.5 42.9-0.1 77.9 34.6 78.3 77.5zM619.6 177.5c0.4 19.1 15.7 34.4 34.8 34.8 9.2 0 18.1-3.7 24.6-10.2 6.5-6.5 10.2-15.4 10.2-24.6 0.2-9.3-3.4-18.3-10-24.8-6.6-6.6-15.5-10.2-24.8-10-9.2 0-18.1 3.7-24.6 10.2-6.6 6.6-10.2 15.4-10.2 24.6z m113.1 0c0 43.2-35.1 78.3-78.3 78.3-43.2 0-78.3-35.1-78.3-78.3s35.1-78.3 78.3-78.3c20.8 0 40.7 8.3 55.4 22.9 14.6 14.8 22.9 34.7 22.9 55.4zM706.9 352.9c-4.1-15.7-18.6-26.5-35-26H432.7c-17.3 0-32.3 12.1-35.7 28.9l-30.6 152.3h386.5l-46-155.2zM782 551.4H357.6l-16.8 85.2c-2.2 8.5-8.9 15.2-17.5 17.3l-76.6 14.4c-12 2.2-23.7-5.5-26.3-17.3-1.1-5.6 0.2-11.5 3.5-16.2 3.3-4.7 8.3-8 14-9l62.7-11.6 53.2-265.7c7.6-37.2 40.5-64 78.8-64.2h239.2c35.7-0.1 67.2 23.1 77.3 57l54 183.4c1.7 6.5 0.3 13.4-3.6 18.8-4.3 5.2-10.7 8.1-17.5 7.9z"  horiz-adv-x="1024" />

    
    <glyph glyph-name="biaoqian4" unicode="&#58932;" d="M667.648 896H0v-667.648l184.32 184.32c33.28-19.456 72.192-30.72 114.176-30.72 125.44 0 226.816 101.376 226.816 226.816 0 41.472-11.264 80.384-30.72 114.176L667.648 896z"  horiz-adv-x="1024" />

    
    <glyph glyph-name="cart2" unicode="&#59189;" d="M712.5 584.8C657.8 637.6 586.9 668 512 668s-147.8-30.4-200.5-83.2c-111.4-111.6-111.4-290.1 0-401.7C364.2 130.4 437.1 100 512 100s147.8 30.4 200.5 83.2c111.4 111.5 111.4 290.1 0 401.6zM621.8 366H530v-91.8c0-10.8-7.2-18-18-18-5.4 0-9 1.8-12.6 5.4-3.6 3.6-5.4 7.2-5.4 12.6V366h-91.8c-5.4 0-9 1.8-12.6 5.4-3.6 3.6-5.4 7.2-5.4 12.6 0 10.8 7.2 18 18 18H494v91.8c0 10.8 7.2 18 18 18s18-7.2 18-18V402h91.8c10.8 0 18-7.2 18-18s-7.2-18-18-18z"  horiz-adv-x="1024" />

    
    <glyph glyph-name="cart3" unicode="&#59190;" d="M613.7 315.6c14.9 0.1 27.6 10.4 30.6 24.7l24.3 110.9H407.1L440 315.6h173.7zM512 723.1c-187.3 0-339.1-151.8-339.1-339.1S324.7 44.9 512 44.9 851.1 196.7 851.1 384 699.3 723.1 512 723.1z m-27.3-528.8c-8.9-8.9-21.1-13.9-33.7-13.8-26.2 0-47.5 21.3-47.5 47.5s21.3 47.5 47.5 47.5 47.5-21.3 47.5-47.5c0.1-12.6-4.9-24.7-13.8-33.7z m162.7 0c-8.9-8.9-21.1-13.9-33.7-13.8-26.2 0-47.5 21.3-47.5 47.5s21.3 47.5 47.5 47.5 47.5-21.3 47.5-47.5c0.1-12.6-4.8-24.7-13.8-33.7z m23.4 140.3c-5.9-26.4-29.6-45.3-57.2-45.5H418.8l-45.5 186.8c-2.5 10-11.6 17.1-22.1 17.2h-29.3c-3.6-0.1-7.1 1.2-9.7 3.7-2.6 2.5-3.9 6-3.8 9.5 0 7.3 6 13.3 13.5 13.3h29.3c23 0 42.9-15.6 48.2-37.5l1.4-4.4h301.1l-31.1-143.1zM443.7 246.9c-7.7-3.1-12.7-10.6-12.7-18.8-0.1-5.4 1.9-10.5 5.7-14.4 3.7-3.8 8.9-6 14.2-6 8.3-0.2 15.8 4.7 19.1 12.2 3.3 7.6 1.7 16.4-4.1 22.3-5.7 6-14.5 7.8-22.2 4.7zM606.5 246.9c-7.7-3.1-12.7-10.6-12.7-18.8-0.1-5.4 1.9-10.5 5.7-14.4 3.7-3.8 8.9-6 14.2-6 8.3-0.2 15.8 4.7 19.1 12.2 3.3 7.6 1.7 16.4-4.1 22.3-5.8 6-14.5 7.8-22.2 4.7z"  horiz-adv-x="1024" />

    
    <glyph glyph-name="gouwuche6" unicode="&#59191;" d="M985.6 100.864h-947.2V667.136h947.2v-566.272z m-928.256 19.456H966.656v527.36H57.344v-527.36zM284.16 472.576v-104.448c-0.512-35.328-5.632-63.488-15.36-84.48-9.728-19.968-25.088-35.328-46.592-46.08l-12.288 18.944c20.48 10.24 34.816 24.064 43.008 41.472 7.68 17.92 11.776 41.472 12.288 70.144v104.448h18.944z m44.032-155.648h-20.48v178.688h-66.048v-178.688h-20.48V517.12h107.008v-200.192z m13.824-60.928l-16.384-16.384c-10.24 16.384-24.576 34.304-43.008 53.248l14.848 14.336c17.408-16.896 32.256-34.304 44.544-51.2z m53.76 271.872c-3.072-15.36-7.168-30.208-11.264-43.52h105.472c0-111.104-2.048-178.688-5.12-204.288-3.072-26.112-17.92-39.424-43.52-39.424-8.704 0-23.552 0.512-44.544 1.024l-5.632 20.48c17.92-0.512 33.28-1.024 46.592-1.024 13.824 0 22.016 8.192 25.088 25.088 2.56 18.944 4.096 77.312 4.608 175.616h-92.16c-8.704-18.944-18.944-36.352-31.744-52.224l-13.824 17.92c21.504 28.16 36.352 61.952 44.032 102.912l22.016-2.56z m56.832-221.184l-18.944-9.728c-2.56 8.192-4.608 15.872-7.168 23.04-25.088-5.632-51.712-9.728-81.408-13.312l-4.096 19.968c12.288 9.728 27.136 45.056 45.568 107.008l20.48-6.656c-13.824-41.472-27.136-74.24-39.936-98.304 18.944 2.56 36.352 5.632 53.248 9.728-5.12 15.36-10.24 29.696-15.872 42.496l17.408 8.704c11.264-25.6 20.992-53.248 30.72-82.944z m249.856 166.4v-67.072c-0.512-17.408-3.072-33.28-6.144-48.128h118.272v-22.016H688.64c-2.048-5.12-4.608-10.24-7.168-14.848 46.08-20.48 88.064-43.008 125.952-67.072l-15.36-17.408c-39.424 25.088-79.872 47.616-121.856 67.072-2.048-2.048-3.584-4.608-5.12-6.144-23.04-25.088-60.928-45.056-113.664-58.88l-13.312 20.48c52.736 13.824 89.6 31.744 110.592 54.272 5.632 7.168 10.24 14.336 14.336 22.016H536.576v22.016h135.68c4.608 14.848 7.168 30.72 7.68 48.128v67.072l22.528 0.512z m88.576 37.888v-14.336c-4.608-18.944-11.264-37.888-18.944-56.832l-21.504 6.144c6.656 13.312 12.288 27.648 16.384 43.52H548.864v21.504h242.176z m-161.792-117.76l-11.776-18.432c-21.504 15.872-43.52 28.672-66.048 37.376l11.264 16.384c24.064-10.24 46.592-22.016 66.56-35.328z m28.16 44.032l-11.776-17.92c-20.992 15.872-42.496 28.672-64.512 37.376l10.752 16.384c24.064-9.728 46.08-21.504 65.536-35.84z"  horiz-adv-x="1024" />

    
    <glyph glyph-name="gouwuche5" unicode="&#59192;" d="M38.4 667.136v-565.76h947.2V667.136h-947.2z m510.464-156.16h242.688v-14.336c-4.608-18.944-11.264-37.888-18.944-56.832l-21.504 6.144c6.656 13.312 12.288 27.648 16.384 43.52H548.864v21.504z m32.256-54.272l10.752 16.384c24.064-10.24 46.08-22.016 65.536-35.84l-11.776-17.92c-20.992 15.872-42.496 28.672-64.512 37.376z m48.128-63.488l-11.776-18.432c-21.504 15.872-43.52 28.672-66.048 37.376l11.264 16.384c24.064-10.24 46.592-22.016 66.56-35.328zM221.184 517.12h107.008v-200.192h-20.48v178.688h-66.048v-178.688h-20.48V517.12z m0.512-279.552l-12.288 18.944c20.48 10.24 34.816 24.064 43.008 41.472 7.68 17.92 11.776 41.472 12.288 70.144v104.448h18.944v-104.448c-0.512-35.328-5.632-63.488-15.36-84.48-9.216-19.968-25.088-35.328-46.592-46.08z m120.32 18.432l-16.384-16.384c-10.24 16.384-24.576 34.304-43.008 53.248l14.848 14.336c17.408-16.896 32.256-34.304 44.544-51.2z m-0.512 70.656c12.288 9.728 27.136 45.056 45.568 107.008l20.48-6.656c-13.824-41.472-27.136-74.24-39.936-98.304 18.944 2.56 36.352 5.632 53.248 9.728-5.12 15.36-10.24 29.696-15.872 42.496l17.408 8.704c10.752-25.6 20.48-53.248 30.208-82.944l-18.944-9.728c-2.56 8.192-4.608 15.872-7.168 23.04-25.088-5.632-51.712-9.728-81.408-13.312l-3.584 19.968z m142.848-46.592c-3.072-26.112-17.92-39.424-43.52-39.424-8.704 0-23.552 0.512-44.544 1.024l-5.632 20.48c17.92-0.512 33.28-1.024 46.592-1.024 13.824 0 22.016 8.192 25.088 25.088 2.56 18.944 4.096 77.312 4.608 175.616h-92.16c-8.704-18.944-18.944-36.352-31.744-52.224l-13.824 17.92c21.504 28.16 36.352 61.952 44.032 102.912l22.528-3.072c-3.072-15.36-7.168-30.208-11.264-43.52h105.472c-0.512-110.592-2.56-178.176-5.632-203.776z m330.24 55.808H688.64c-2.048-5.12-4.608-10.24-7.168-14.848 46.08-20.48 88.064-43.008 125.952-67.072l-15.36-17.408c-39.424 25.088-79.872 47.616-121.856 67.072-2.048-2.048-3.584-4.608-5.12-6.144-23.04-25.088-60.928-45.056-113.664-58.88l-13.312 20.48c52.736 13.824 89.6 31.744 110.592 54.272 5.632 7.168 10.24 14.336 14.336 22.016H536.576v22.016h135.68c4.608 14.848 7.168 30.72 7.68 48.128v67.072h22.528v-66.56c-0.512-17.408-3.072-33.28-6.144-48.128h118.272v-22.016zM342.016 256z"  horiz-adv-x="1024" />

    
    <glyph glyph-name="biaoqian8" unicode="&#58935;" d="M78.191155 451.072c0 1.536 0 2.048-0.512 3.072 0 10.24-5.632 19.456-9.728 28.672-17.92 51.2-36.864 103.424-41.472 157.696-3.072 32.256 15.36 62.464 37.888 83.456 25.088 23.552 57.856 36.352 91.136 43.008 31.744 6.144 65.024 3.072 96.768 11.264 27.136 6.656 57.856 23.04 77.824 43.008C354.159155 844.8 384.367155 865.792 418.671155 865.28c20.992-0.512 34.816-11.264 47.616-26.112 6.144-7.168 13.312-14.336 17.92-22.528 6.144-9.216 7.68-17.408 8.704-28.672 3.584-35.328-2.048-71.168 2.56-105.984s22.528-64.512 45.056-91.136c14.848-17.92 27.648-34.816 32.768-57.856 6.144-23.04-4.608-50.688-12.288-71.68-9.216-24.064-19.968-47.616-33.28-69.632-0.512-1.024-1.024-1.536-0.512-2.048 0-1.536 1.536-2.048 2.048-2.56 3.072-1.536 6.144-2.56 9.728-2.56 5.632 0.512 11.776 4.096 16.896 1.536l1.024-0.512c0.512-1.024-0.512-2.048-2.048-2.56-19.456-6.656-38.912-14.336-59.904-15.872-8.704-0.512-17.92-1.024-26.624-2.56-30.208-3.584-59.904-8.704-89.088-15.872-13.824-3.584-26.624-6.144-39.424-10.752-25.088-7.168-49.664-17.408-70.656-32.768-6.656-4.608-12.8-10.24-17.92-15.36-14.848-15.36-28.672-31.744-51.712-23.04-24.064 8.704-45.056 26.624-64.512 41.984-1.536 1.536-4.096 3.072-6.144 4.608-22.016 18.944-42.496 42.496-52.736 70.144-4.608 12.8-6.656 27.136-4.096 40.96 2.56 9.216 5.632 17.92 6.144 26.624zM215.407155 239.104c-7.168-2.048-15.36-2.048-25.088 1.024-25.6 9.728-48.128 28.16-68.608 44.032l-2.56 2.56c-2.048 2.048-4.096 3.072-6.144 5.12-28.672 23.552-48.64 50.688-58.368 78.336-6.144 16.896-7.68 32.768-4.608 47.104 1.024 3.584 1.024 6.656 2.048 10.24 1.536 5.632 2.56 11.264 3.072 16.384 0.512 1.024 0 2.048 0 2.56 0 7.168-3.072 13.312-5.632 20.48-1.536 2.56-2.56 6.144-4.096 9.216C23.919155 536.064 4.975155 590.336 0.367155 647.68c-3.072 32.256 13.312 66.56 42.496 94.208 24.576 23.04 58.88 39.936 100.864 47.616 15.872 3.072 32.768 4.608 49.152 5.12 18.432 1.536 37.376 2.56 54.784 6.656 29.696 7.168 61.44 25.088 80.896 44.544C361.327155 880.128 394.607155 896 427.375155 896c26.112-0.512 42.496-15.36 55.296-30.72l4.096-4.608c5.632-6.144 11.264-12.8 16.384-20.48 8.192-11.776 8.704-22.016 10.24-33.28 2.048-17.92 1.536-36.352 1.536-53.76 0-19.456-0.512-40.448 1.536-59.904 4.608-31.232 18.944-61.952 47.104-95.232 15.872-18.944 30.208-37.888 36.864-64.512 6.144-26.112-4.608-55.808-13.312-79.36v-0.512c-10.752-28.16-22.528-52.224-35.328-74.24 1.536-1.024 3.072-1.024 4.608-0.512 2.048 0 3.584 0.512 5.632 1.024 4.096 1.024 10.24 2.56 15.36 0 1.024-0.512 2.56-1.024 3.584-3.072 1.024-1.536 1.024-4.096 0.512-6.144-1.024-3.584-4.608-4.608-5.632-5.632l-4.608-1.536c-19.968-7.168-40.448-14.848-61.952-15.872-10.752-0.512-20.48-1.536-28.672-2.56-31.232-4.096-63.488-9.216-95.232-17.408-13.312-3.072-27.136-7.168-40.96-11.264-30.208-8.704-54.784-20.48-74.24-34.304-6.656-5.12-13.312-10.24-18.944-15.872l-3.584-3.584c-9.216-9.728-19.456-19.968-32.256-23.552zM124.783155 773.12c-29.696-8.704-54.272-22.016-73.216-39.424-12.8-12.288-41.984-44.544-38.912-84.992 5.12-55.296 23.04-109.056 44.544-168.448 1.024-3.072 2.56-5.632 3.584-8.704 3.584-7.168 7.168-15.36 7.168-25.088v-4.096c-0.512-6.656-2.048-12.8-3.584-18.944-1.024-3.584-1.536-6.144-2.56-9.728-2.048-12.288-1.024-26.112 4.096-40.96 11.776-31.744 36.352-56.832 55.296-72.192 2.048-2.048 4.096-3.072 6.144-5.12l2.56-2.56c20.48-16.896 41.472-33.28 65.024-41.984 17.92-6.656 28.672 3.072 45.056 19.968l3.584 3.584c6.144 6.144 12.8 12.288 19.968 17.408 20.48 14.848 46.08 26.624 78.336 36.352 13.824 4.096 27.648 7.68 41.472 11.264 32.768 8.192 65.024 13.824 96.768 16.896 8.704 1.024 17.408 2.048 29.184 2.56 12.8 1.024 25.088 4.096 37.888 8.192-1.536 0-2.56 1.024-3.584 1.536-4.608 3.072-5.12 6.656-5.632 8.704 0 2.56 1.536 4.096 1.536 5.632 13.312 21.504 25.088 46.08 35.328 74.24v1.536c8.192 22.528 18.432 50.176 12.8 72.192-6.144 24.064-19.968 41.472-33.792 59.392-29.696 35.328-45.056 67.072-50.176 101.376-2.56 20.48-2.048 41.472-2.048 61.44 0 17.408 1.024 35.328-1.024 52.736-1.024 12.288-3.072 19.456-8.192 28.672-4.608 6.656-9.728 12.8-15.36 18.944l-4.096 4.608c-15.36 17.92-29.696 26.624-46.592 26.624-29.184 0.512-59.392-15.36-90.112-46.08-20.992-20.992-55.296-39.936-86.528-47.616-19.456-5.12-38.4-6.144-57.344-6.656-15.872-0.512-31.744-2.048-47.104-5.12 0-0.512-20.48-6.144-20.48-6.144z"  horiz-adv-x="1024" />

    
    <glyph glyph-name="biaoqian" unicode="&#58936;" d="M612.97635666 777.63303334c1.022977-16.879121 21.482517-40.407592 6.137862-88.487512 0 0-46.545455 130.941059-143.728271 163.676323 8.183816-30.689311 40.919081-102.297702-59.844156-190.785214-5.626374 17.902098-13.81019 34.781219-23.528472 50.125874 0 10.741259 0.511489 20.45954 2.045954 26.085914 0 0-3.58042-5.626374-9.206793-14.833167-15.856144 22.505495-34.781219 41.430569-53.194805 54.729271 1.022977-16.879121 21.482517-40.407592 6.137862-88.487513 0 0-46.545455 130.941059-143.728272 163.676324 8.695305-32.735265 45.010989-110.481518-78.257742-206.12987 0 0-8.695305 71.608392-3.068931 91.556443 0 0-74.165834-141.682318-68.53946-217.382617 7.672328-101.274725 146.285714-141.682318 228.635364-122.245754 32.735265 7.672328 64.447552 22.505495 90.021978 43.476523 48.591409-43.988012 134.00999-57.286713 191.296703-43.476523 65.982018 15.856144 127.360639 69.562438 145.774226 137.590409 25.062937 91.556444-34.26973 202.549451-86.953047 240.911089z"  horiz-adv-x="1024" />

    
    <glyph glyph-name="xiangqing" unicode="&#59193;" d="M774.72 548.05333333L648.64 672.42666667c-10.88 10.77333333-25.28 16.74666667-40.53333333 16.74666666H315.94666667c-46.50666667 0-84.48-38.72-84.48-86.4V165.33333332999996c0-47.68 37.86666667-86.4 84.48-86.4h392.10666666c46.50666667 0 84.48 38.72 84.48 86.4V505.28c-0.10666667 16-6.50666667 31.57333333-17.81333333 42.77333333z m-151.46666667 95.78666667l120-118.4h-97.49333333c-12.48 0-22.61333333 10.13333333-22.61333333 22.61333333v95.78666667z m84.8-526.72H315.94666667c-25.49333333 0-46.29333333 21.65333333-46.29333334 48.21333333V602.77333333c0 26.56 20.8 48.21333333 46.29333334 48.21333334h267.09333333v-103.04c0-34.56 28.16-62.72 62.72-62.72h108.48V165.33333332999996c0-26.66666667-20.69333333-48.21333333-46.18666667-48.21333333zM564.37333333 434.45333333H365.86666667c-10.24 0-18.56-8.32-18.56-18.56s8.32-18.56 18.56-18.56h198.50666666c10.24 0 18.56 8.32 18.56 18.56s-8.32 18.56-18.56 18.56zM530.66666667 299.84000000000003H365.86666667c-10.24 0-18.56-8.32-18.56-18.56s8.32-18.56 18.56-18.56h164.90666666c10.24 0 18.56 8.32 18.56 18.56s-8.42666667 18.56-18.66666666 18.56z"  horiz-adv-x="1024" />

    
    <glyph glyph-name="zhuangxiu" unicode="&#59195;" d="M750.2 95.70000000000005H273.8c-31.2 0-56.5 25.3-56.5 56.5V615.8c0 31.2 25.3 56.5 56.5 56.5h476.5c31.2 0 56.5-25.3 56.5-56.5v-463.5c0-31.2-25.4-56.6-56.6-56.6z m-476.4 533c-7.1 0-12.9-5.8-12.9-12.9v-463.5c0-7.1 5.8-13 12.9-13h476.5c7.1 0 12.9 5.8 12.9 13V615.8c0 7.1-5.8 12.9-12.9 12.9H273.8zM512.4 352.70000000000005c-78.4 0-142.1 67.5-142.1 150.4 0 12 9.8 21.8 21.8 21.8s21.8-9.8 21.8-21.8c0-58.9 44.2-106.8 98.6-106.8S611 444.2 611 503.1c0 12 9.8 21.8 21.8 21.8s21.8-9.8 21.8-21.8c-0.1-82.9-63.8-150.4-142.2-150.4z"  horiz-adv-x="1024" />

    
    <glyph glyph-name="tongguo" unicode="&#59196;" d="M619.73333333 480.32L464 329.38666666999995l-60.05333333 56.64c-7.57333333 7.14666667-19.62666667 6.82666667-26.77333334-0.74666667-7.14666667-7.57333333-6.82666667-19.62666667 0.74666667-26.77333333l73.28-69.01333334c3.52-3.30666667 8.21333333-5.12 13.01333333-5.12 4.90666667 0 9.70666667 1.92 13.22666667 5.33333334L646.18666667 453.33333333c7.57333333 7.25333333 7.68 19.30666667 0.42666666 26.77333334-7.25333333 7.25333333-19.30666667 7.46666667-26.88 0.21333333z m0 0M512 50.66666667000004c-89.06666667 0-172.8 34.66666667-235.73333333 97.6s-97.6 146.66666667-97.6 235.73333333S213.33333333 556.8 276.26666667 619.73333333s146.66666667 97.6 235.73333333 97.6S684.8 682.66666667 747.73333333 619.73333333s97.6-146.66666667 97.6-235.73333333S810.66666667 211.20000000000005 747.73333333 148.26666666999995s-146.66666667-97.6-235.73333333-97.6z m0 631.46666666c-79.68 0-154.56-31.04-210.88-87.36-56.32-56.32-87.36-131.2-87.36-210.88 0-79.68 31.04-154.56 87.36-210.88 56.32-56.32 131.2-87.36 210.88-87.36s154.56 31.04 210.88 87.36c56.32 56.32 87.36 131.2 87.36 210.88s-31.04 154.56-87.36 210.88-131.2 87.36-210.88 87.36z"  horiz-adv-x="1024" />

    
    <glyph glyph-name="jujue" unicode="&#59197;" d="M623.68 496.53333333c-7.36 7.36-19.41333333 7.36-26.77333333 0L512 411.73333333l-84.8 84.8c-7.36 7.36-19.41333333 7.36-26.77333333 0-7.36-7.36-7.36-19.41333333 0-26.77333333l84.8-84.8-84.8-84.8c-7.36-7.36-7.36-19.41333333 0-26.77333333 3.73333333-3.73333333 8.53333333-5.54666667 13.44-5.54666667s9.70666667 1.81333333 13.44 5.54666667l84.8 84.8 84.8-84.8c3.73333333-3.73333333 8.53333333-5.54666667 13.44-5.54666667s9.70666667 1.81333333 13.44 5.54666667c7.36 7.36 7.36 19.41333333 0 26.77333333l-84.8 84.8 84.8 84.8c7.25333333 7.36 7.25333333 19.30666667-0.10666667 26.77333333z m0 0M512 50.66666667000004c-89.06666667 0-172.8 34.66666667-235.73333333 97.6s-97.6 146.66666667-97.6 235.73333333S213.33333333 556.8 276.26666667 619.73333333s146.66666667 97.6 235.73333333 97.6S684.8 682.66666667 747.73333333 619.73333333s97.6-146.66666667 97.6-235.73333333S810.66666667 211.20000000000005 747.73333333 148.26666666999995s-146.66666667-97.6-235.73333333-97.6z m0 631.46666666c-79.68 0-154.56-31.04-210.88-87.36-56.32-56.32-87.36-131.2-87.36-210.88s31.04-154.56 87.36-210.88c56.32-56.32 131.2-87.36 210.88-87.36s154.56 31.04 210.88 87.36c56.32 56.32 87.36 131.2 87.36 210.88 0 79.68-31.04 154.56-87.36 210.88s-131.2 87.36-210.88 87.36z"  horiz-adv-x="1024" />

    
    <glyph glyph-name="shoucang" unicode="&#58940;" d="M595.88479326 714.02220742l82.31274065-166.86909976c15.84555316-32.25201132 46.5550763-54.54796628 82.17251458-59.59610749l184.25714113-26.78319118-133.35505392-129.70917484c-25.80160876-25.10047846-37.44037783-61.13859492-31.41065421-96.47558032l31.41065421-183.27555793-164.90593417 86.65975078c-15.56510103 8.13311606-33.09336768 12.48012621-50.76186116 12.48012621-17.52826665 0-35.19676012-4.34701014-50.76186039-12.48012621l-164.90593416-86.51952471 31.55088026 183.27555793c6.02972362 35.33698617-5.60904546 71.51532869-31.4106542 96.61580637L246.86194402 461.19448718l184.25714113 26.64296509c35.47721223 5.18836727 66.18673537 27.48432223 82.17251458 59.59610752l82.59319353 166.58864764m0 65.48560507c-17.38804058 0-34.6358551-8.97447241-43.61032828-27.06364405L463.09064359 571.97313323c-7.71243711-15.56510103-22.71663391-26.50273905-39.96444844-28.8865836L223.72463193 514.1999660399999c-39.82422237-5.7492715-55.8100016-54.68819236-26.923418-82.73341959L340.95368057 290.95995967c12.48012621-12.19967408 18.22939771-29.72794071 15.28464814-46.83552918L322.0231518 45.704450459999975c-5.32859333-31.41065421 19.63165907-56.93181083 47.95733843-56.93181084 7.43198499 0 15.14442286 1.82293954 22.57640785 5.60904544l178.36764279 93.53083155c7.71243711 4.06655802 16.12600528 6.02972362 24.6797995 6.02972438 8.41356817 0 16.96736241-1.96316559 24.67980029-6.02972438L798.51155738-5.7585410000000365c7.43198499-3.92633197 15.14442286-5.7492715 22.57640785-5.7492715 28.32567937 0 53.28593099 25.52115664 47.8171116 56.79158478L835.11057885 243.84397837999995c-2.94474878 17.24781453 2.80452272 34.6358551 15.28464815 46.83552917l144.29269269 140.36636072c28.88658359 28.04522724 12.90080438 76.98414807-26.92341799 82.87364565l-199.40156323 29.02680965c-17.24781453 2.52407061-32.25201132 13.32148255-39.96444842 29.02680966L639.49512078 752.44416845C630.52064836 770.53334009 613.13260779 779.5078125 595.88479326 779.5078125z"  horiz-adv-x="1180" />

    
    <glyph glyph-name="shoucang-xuanzhong" unicode="&#58942;" d="M796.51794459-5.770889789999956l-178.95456094 94.0532232c-15.48780631 8.16629777-34.0731734 8.16629777-49.5609797 0l-179.09535938-93.91242475c-35.76275264-18.72616556-77.57982921 11.54545549-70.82151375 51.39135664l34.21397185 199.08870882c2.9567631 17.17738478-2.81596465 34.77716495-15.34700784 47.02661198L192.35270423 433.09721821c-29.00443719 28.15964796-12.95343781 77.29823303 27.0332618 83.0709608l200.21509497 29.00443718c17.31818324 2.53436849 32.38359493 13.37583243 40.12749731 29.0044372L549.27623839 755.38438588c17.88137633 36.18514726 69.55432989 36.18514726 87.43570543 0L726.25962315 574.1770533900001c7.74390317-15.62860477 22.66851638-26.61086718 40.12749807-29.14523566l200.21509496-29.14523489c39.98669962-5.77272775 56.037699-54.91131282 27.03326181-83.21175926l-145.02218523-140.93903594c-12.53104319-12.24944704-18.30377094-29.84922643-15.34700861-47.02661199l34.07317418-199.2295065c6.89911391-39.70510343-35.0587611-70.11752297-70.82151376-51.25055894z"  horiz-adv-x="1180" />

    
    <glyph glyph-name="shuanglan" unicode="&#59216;" d="M480.36977778 99.66933332999997H227.66933333V668.33066667h252.70044445v-568.66133334z m-225.62133333 27.07911112h198.54222222V641.25155555H254.74844445v-514.5031111zM796.33066667 99.66933332999997H543.63022222V668.33066667h252.70044445v-568.66133334z m-225.62133334 27.07911112h198.54222222V641.25155555H570.70933333v-514.5031111z"  horiz-adv-x="1024" />

    
    <glyph glyph-name="lunbo" unicode="&#59217;" d="M796.33066667 99.66933332999997H227.66933333V668.33066667h568.66133334v-568.66133334z m-541.58222222 27.07911112h514.5031111V641.25155555H254.74844445v-514.5031111zM647.39555555 275.68355555000005c11.264 0 20.36622222-9.10222222 20.36622223-20.36622222 0-11.264-9.10222222-20.36622222-20.36622223-20.36622222s-20.36622222 9.10222222-20.36622222 20.36622222c0.11377778 11.264 9.10222222 20.36622222 20.36622222 20.36622222m0 21.61777778c-23.09688889 0-41.984-18.77333333-41.984-41.984 0-23.09688889 18.77333333-41.984 41.984-41.984s41.984 18.77333333 41.984 41.984-18.88711111 41.984-41.984 41.984zM512 275.68355555000005c11.264 0 20.36622222-9.10222222 20.36622222-20.36622222 0-11.264-9.10222222-20.36622222-20.36622222-20.36622222-11.264 0-20.36622222 9.10222222-20.36622222 20.36622222 0.11377778 11.264 9.10222222 20.36622222 20.36622222 20.36622222m0 21.61777778c-23.09688889 0-41.984-18.77333333-41.984-41.984 0-23.09688889 18.77333333-41.984 41.984-41.984 23.09688889 0 41.984 18.77333333 41.984 41.984s-18.88711111 41.984-41.984 41.984zM376.60444445 275.68355555000005c11.264 0 20.36622222-9.10222222 20.36622222-20.36622222 0-11.264-9.10222222-20.36622222-20.36622222-20.36622222-11.264 0-20.36622222 9.10222222-20.36622223 20.36622222 0.11377778 11.264 9.10222222 20.36622222 20.36622223 20.36622222m0 21.61777778c-23.09688889 0-41.984-18.77333333-41.984-41.984 0-23.09688889 18.77333333-41.984 41.984-41.984 23.09688889 0 41.984 18.77333333 41.984 41.984s-18.88711111 41.984-41.984 41.984z"  horiz-adv-x="1024" />

    
    <glyph glyph-name="mianban" unicode="&#59218;" d="M480.36977778 415.63022222H227.66933333V668.33066667h252.70044445v-252.70044445z m-225.62133333 27.07911111h198.54222222V641.25155555H254.74844445v-198.54222222zM796.33066667 415.63022222H543.63022222V668.33066667h252.70044445v-252.70044445z m-225.62133334 27.07911111h198.54222222V641.25155555H570.70933333v-198.54222222zM480.36977778 99.66933332999997H227.66933333V352.36977778000005h252.70044445v-252.70044445z m-225.62133333 27.07911112h198.54222222V325.29066666999995H254.74844445v-198.54222222zM796.33066667 99.66933332999997H543.63022222V352.36977778000005h252.70044445v-252.70044445z m-225.62133334 27.07911112h198.54222222V325.29066666999995H570.70933333v-198.54222222z"  horiz-adv-x="1024" />

    
    <glyph glyph-name="ziyoumianban" unicode="&#59219;" d="M800.88177778 415.63022222H548.06755555V668.33066667h252.70044445v-252.70044445z m-225.73511111 27.07911111H773.68888889V641.25155555H575.14666667v-198.54222222zM475.93244445 99.66933332999997H223.11822222V668.33066667h252.70044445v-568.66133334z m-225.73511112 27.07911112h198.54222222V641.25155555H250.19733333v-514.5031111zM674.47466667 99.66933332999997c-69.632 0-126.40711111 56.66133333-126.40711112 126.40711112s56.66133333 126.40711111 126.40711112 126.4071111 126.40711111-56.66133333 126.40711111-126.4071111S744.10666667 99.66933332999997 674.47466667 99.66933332999997z m0 225.62133334c-54.72711111 0-99.328-44.60088889-99.328-99.328 0-54.72711111 44.60088889-99.328 99.328-99.328 54.72711111 0 99.328 44.60088889 99.328 99.328 0 54.84088889-44.60088889 99.328-99.328 99.328z"  horiz-adv-x="1024" />

    
    <glyph glyph-name="gonggao" unicode="&#59220;" d="M512 577.1946666700001h203.09333333V550.11555555H512zM512 464.44088889h203.09333333v-27.07911111H512zM512 351.57333332999997h135.39555555v-27.07911111H512zM796.33066667 667.53422222H227.66933333v-455.79377777h229.03466667l-91.93244445-91.93244445 19.11466667-19.11466667 111.16088889 111.16088889H524.51555555l111.1608889-111.16088889 19.11466666 19.11466667-91.93244444 91.93244445H796.44444445V667.53422222z m-27.07911112-428.82844444H254.74844445v401.63555555h514.5031111v-401.63555555zM457.84177778 577.1946666700001h-139.94666667v-139.94666667h139.94666667v139.94666667z m-27.07911111-112.75377778h-85.78844445V550.11555555h85.78844445v-85.67466666z"  horiz-adv-x="1024" />

    
    <glyph glyph-name="fengexian" unicode="&#59221;" d="M743.53777778 444.18844445v-46.6488889h-463.07555556v46.6488889H159.97155555V323.69777778h120.49066667v46.64888889h463.18933333v-46.64888889h120.49066667V444.18844445h-120.60444444z m-490.15466667-93.29777778h-66.33244444v66.33244444h66.33244444v-66.33244444z m583.56622222 0h-66.33244444v66.33244444h66.33244444v-66.33244444z"  horiz-adv-x="1024" />

    
    <glyph glyph-name="liebiao" unicode="&#59222;" d="M396.62933333 445.66755555H205.14133333V637.0417777800001h191.37422222v-191.37422223zM232.22044445 472.74666667h137.216V609.96266667H232.22044445V472.74666667zM396.62933333 130.95822222000004H205.14133333V322.33244445h191.37422222v-191.37422223z m-164.40888888 27.07911111h137.216V295.25333333000003H232.22044445v-137.216zM481.39377778 616.448h337.46488889v-27.07911111H481.39377778zM481.39377778 301.85244445h337.46488889V274.77333333H481.39377778zM481.39377778 493.22666667h337.46488889v-27.07911112H481.39377778zM481.39377778 178.51733333000004h337.46488889v-27.07911111H481.39377778z"  horiz-adv-x="1024" />

    
    <glyph glyph-name="wenben" unicode="&#59223;" d="M227.66933333 641.25155555v-99.328h27.07911112v72.2488889h243.712v-460.3448889h-108.31644445v-27.0791111H642.84444445v27.0791111H525.53955555V614.1724444500001h243.712v-72.2488889h27.07911112V641.25155555z"  horiz-adv-x="1024" />

    
    <glyph glyph-name="dankuang" unicode="&#59225;" d="M762.53866667 620.88533333v-324.94933333H437.58933333V620.88533333h324.94933334M789.61777778 647.96444445H410.51022222v-379.10755556H789.61777778V647.96444445zM640.56888889 120.03555555000003H234.38222222V526.22222222h150.41422223v-27.07911111H261.46133333v-352.02844444h352.02844445v92.72888888H640.56888889z"  horiz-adv-x="1024" />

    
    <glyph glyph-name="shipin" unicode="&#59234;" d="M796.33066667 99.66933332999997H227.66933333V668.33066667h568.66133334v-568.66133334z m-541.58222222 27.07911112h514.5031111V641.25155555H254.74844445v-514.5031111zM430.76266667 294.34311111V473.65688889L609.96266667 384l-179.2-89.65688889z m27.07911111 135.39555556v-91.59111112l91.59111111 45.73866667-91.59111111 45.85244445z"  horiz-adv-x="1024" />

    
    <glyph glyph-name="tupian1" unicode="&#59235;" d="M444.07466667 415.97155555c45.056 0 81.80622222 36.63644445 81.80622222 81.80622223s-36.63644445 81.80622222-81.80622222 81.80622222-81.80622222-36.63644445-81.80622222-81.80622222 36.75022222-81.80622222 81.80622222-81.80622223z m0 136.41955556c30.15111111 0 54.72711111-24.576 54.72711111-54.72711111s-24.576-54.72711111-54.72711111-54.72711111-54.72711111 24.576-54.72711112 54.72711111 24.576 54.72711111 54.72711112 54.72711111zM225.73511111 670.49244445V230.39999999999998l-0.56888889-0.56888889 0.56888889-0.56888889v-131.75466667H798.72V670.49244445H225.73511111z m27.07911111-27.07911112h518.82666667v-333.93777778l-118.32888889 116.2808889-188.64355555-186.368-113.77777778 116.05333333-97.96266667-97.96266667V643.41333333z m0-518.82666666v94.54933333l97.84888889 97.84888889 113.664-115.93955556 188.98488889 186.70933334 117.87377778-115.712 0.45511111 0.45511111v-147.91111111h-518.82666667z"  horiz-adv-x="1024" />

    
    <glyph glyph-name="biaoti" unicode="&#59236;" d="M796.33066667 99.66933332999997H227.66933333V668.33066667h568.66133334v-568.66133334z m-541.58222222 27.07911112h514.5031111V641.25155555H254.74844445v-514.5031111zM390.144 560.01422222h243.712v-27.07911111H390.144z"  horiz-adv-x="1024" />

    
    <glyph glyph-name="anniu" unicode="&#59233;" d="M192.57268148 654.39668148v-233.01688889h165.05362963v29.12711111h-135.92651852v174.76266667h580.60041482v-174.76266667H650.11105185v-29.12711111h181.31626667v233.01688889zM470.00841482 113.60331852000002c-3.76225185 0-7.40314075 1.45635555-10.31585185 4.2477037L325.2224 252.19982222c-23.30168889 23.30168889-23.30168889 61.16693333 0 84.46862223 11.28675555 11.28675555 26.33576297 17.47626667 42.23431111 17.47626666 15.89854815 0 30.94755555-6.18951111 42.23431111-17.47626666l34.70980741-34.70980742v200.24888889c0 32.88936297 26.82121482 59.71057778 59.71057778 59.71057778s59.71057778-26.82121482 59.71057777-59.71057778v-126.94565925h146.4850963c38.71478518 0 70.26915555-31.55437037 70.26915555-70.26915556v-126.46020741c0-15.77718518-5.09724445-31.55437037-13.83537778-43.44794073-10.43721482-13.95674075-25.12213333-21.60260741-41.50613333-21.60260742-8.00995555 0-14.56355555 6.5536-14.56355555 14.56355556s6.5536 14.56355555 14.56355555 14.56355556c16.26263703 0 26.33576297 18.6898963 26.33576297 35.92343703V305.11407408c0 22.69487408-18.44717037 41.14204445-41.14204444 41.14204444H549.37979259c-8.00995555 0-14.56355555 6.5536-14.56355556 14.56355556V502.20752592c0 16.86945185-13.71401482 30.58346667-30.58346666 30.58346667-16.86945185 0-30.58346667-13.71401482-30.58346667-30.58346667v-235.32278517c0-5.94678518-3.51952592-11.16539259-8.98085925-13.4712889-5.46133333-2.3058963-11.65084445-0.9709037-15.89854815 3.15543704l-59.58921482 59.58921481c-5.82542222 5.82542222-13.47128889 8.98085925-21.6026074 8.98085927-8.13131852 0-15.89854815-3.15543703-21.60260741-8.98085927-11.89357037-11.89357037-11.89357037-31.31164445 0-43.32657778l134.3488-134.3488c5.70405925-5.70405925 5.70405925-14.92764445 0-20.6317037-2.91271111-2.91271111-6.67496297-4.2477037-10.31585185-4.2477037z"  horiz-adv-x="1024" />

    
    <glyph glyph-name="dingdan" unicode="&#59224;" d="M660.5 651.6h-297c-19.9 0-36.1 16.2-36.1 36.1v56.1c0 19.9 16.2 36.1 36.1 36.1h296.9c20 0 36.2-16.2 36.2-36.1v-56.1c0-19.9-16.2-36.1-36.1-36.1z m-288 45.1h279.1v38.2H372.5v-38.2zM317 514.4h389.9v-45.1H317zM317 383h389.9v-45.1H317zM317 251.6h267.7v-45.1H317zM791.5-12h-559c-29.1 0-52.7 23.6-52.7 52.7v645c0 29 23.6 52.7 52.7 52.7h46.8v-45.1h-46.8c-4.2 0-7.6-3.4-7.6-7.6v-645c0-4.2 3.4-7.6 7.6-7.6h559c4.2 0 7.6 3.4 7.6 7.6v645c0 4.2-3.4 7.6-7.6 7.6h-46.4v45.1h46.4c29.1 0 52.7-23.6 52.7-52.7v-645c0-29-23.6-52.7-52.7-52.7z"  horiz-adv-x="1024" />

    
    <glyph glyph-name="shangpin" unicode="&#59226;" d="M786.03125 19.3125h-548.4375c-51.46875 0-90.28125 40.5-90.28125 94.125V658.875c0 50.34375 39.65625 89.8125 90.28125 89.8125h552.75c25.59375 0 49.59375-10.40625 65.8125-28.5 15.46875-17.34375 22.59375-39.9375 19.96875-63.65625l0.09375-547.3125c0-50.4375-39.5625-89.90625-90.1875-89.90625z m-548.4375 687.09375c-27.375 0-48-20.4375-48-47.53125v-545.34375c0-30.5625 19.78125-51.84375 48-51.84375h548.4375c27.375 0 47.90625 20.4375 47.90625 47.53125V658.875c1.78125 17.25-4.125 27.28125-9.28125 33.09375-8.25 9.1875-20.71875 14.4375-34.3125 14.4375H237.59375zM725.5625 534.28125c-17.25-107.34375-108-184.6875-211.59375-184.6875-103.6875 0-194.34375 77.25-211.59375 180.375-12.9375 8.625-17.25 17.15625-17.25 30.09375 0 17.15625 12.9375 34.3125 34.59375 34.3125 17.25 0 34.59375-12.84375 34.59375-34.3125 0-8.625-4.3125-17.15625-12.9375-25.78125 8.4375-90.1875 86.25-150.28125 172.59375-150.28125s164.0625 64.40625 177.09375 150.28125c-8.625 8.625-12.9375 17.15625-12.9375 25.78125 0 17.15625 12.9375 34.3125 34.59375 34.3125 17.25 0 34.59375-12.84375 34.59375-34.3125-4.5-12.84375-8.8125-21.46875-21.75-25.78125z"  horiz-adv-x="1024" />

    
    <glyph glyph-name="kehu" unicode="&#59227;" d="M422.9 334.2c-1 2.5-2 4.5-2.9 7-2 4-5.9 10.9-10.7 18.9l-2.4 4c-12.7 19.9-30.8 45.3-46.4 78.6-17.1 36.3-20 68.7-20 94.1 0 60.7 17.6 98.5 50.8 140.8l0.5 0.5c16.1 20.4 34.7 36.3 55.2 46.8 19.5 10 40.5 15.4 62 15.4s42.5-5 62-15.4c20.5-10.5 39-26.4 55.6-46.8 33.7-42.3 51.7-78.1 51.7-138.8 0-55.7-33.7-123.9-59.5-163.7l-1.5-2c-15.6-23.9-25.9-33.8-29.3-44.8-1-3.5-2.9-7-3.9-10.5-10.3-41.3-3.9-59.7 33.2-78.6 7.8-4 17.1-8 24.4-10.9l178.6-73.6c0.5 0 1-0.5 1-0.5 23.9-9 42.5-36.8 42.5-59.7v-19c0-9.5-12.7-25.9-19-31.8-7.3-7-19-10.9-32.2-10.9H206.2c-13.2 0-20 4-27.3 10.5-6.3 6-18.5 22.4-18.5 31.8v18.9c0 21.9 22.5 49.3 45.9 58.2 2 0.5 3.4 1.5 4.9 2l150.3 71.7c1 0.5 2.4 1 3.4 1.5 9.3 3 20.5 8.5 29.8 12.4 43.4 19.8 46.3 49.1 28.2 93.9z m398.8-135.3l-160.6 64.2c-5.4 2-11.7 5-17.6 8-10.7 5.5-16.1 17.9-13.2 29.9 0.5 2 1 4.5 2 6.5 1 3 10.3 17.4 16.1 26.4l1 1.5c27.3 42.3 71.3 112.5 73.2 181.1 2.4 88.6-22 144.3-60.5 188.6-40.5 50.8-94.2 73.6-152.3 73.6S398 755.7 357.5 705c-47.8-56.7-67.4-110-61.5-188.6 5.4-74.6 51.7-155.3 76.6-194.1l2-3.5c2.9-4.5 5.9-9 6.3-10.4 0.5-0.5 0.5-1 1-1.5 5.4-12.9-1-25.9-13.7-31.4-7.3-5-16.6-10.5-24.4-12.4-1 0-1.5-0.5-2.4-1l-138.6-63.7c-0.5 0-1-0.5-1.5-0.5-43.4-16.4-84-59.2-84-103v-17.4c0-51.3 21-88.1 99.1-88.1h586.2c37.6 0 59.1 9 76.1 24.9 17.6 15.9 27.8 38.3 27.8 63.2v17.4c0.1 44.8-30.6 86.6-84.8 104z"  horiz-adv-x="1024" />

    
    <glyph glyph-name="tongji" unicode="&#59228;" d="M124.3 62.8h775.4v-45.1H124.3zM331.9 141.8h-179V507.6h179v-365.8zM198 186.9h88.7V462.5H198v-275.6zM871.5 141.8h-179V400.9h179v-259.1z m-133.9 45.1h88.7V355.8h-88.7v-168.9zM601.7 141.8h-179V750.3h179v-608.5z m-133.9 45.1h88.7V705.2h-88.7v-518.3z"  horiz-adv-x="1024" />

    
    </font>
</defs>
</svg>
